<svg width="553" height="657" viewBox="0 0 553 657" fill="none" xmlns="http://www.w3.org/2000/svg">
<path d="M236.967 636.64C261.597 636.64 281.563 625.113 281.563 610.893C281.563 596.673 261.597 585.146 236.967 585.146C212.337 585.146 192.371 596.673 192.371 610.893C192.371 625.113 212.337 636.64 236.967 636.64Z" fill="#F7F7F9"/>
<path d="M183.839 627.629C213.767 627.629 238.029 613.621 238.029 596.342C238.029 579.062 213.767 565.055 183.839 565.055C153.91 565.055 129.648 579.062 129.648 596.342C129.648 613.621 153.91 627.629 183.839 627.629Z" fill="#F7F7F9"/>
<path d="M487.549 138.95L320.594 42.5682C318.691 41.4698 316.551 41.6111 314.889 42.5761V42.5755L303.99 49.7006L308.239 54.7958L312.053 53.8952V433.792C312.053 441.459 316.144 448.543 322.784 452.375L485.014 546.012L481.981 547.997L485.317 555.364L495.957 548.396L495.956 548.39C497.335 547.381 498.278 545.759 498.278 543.808V157.533C498.279 149.867 494.189 142.783 487.549 138.95Z" fill="#E4EBFF"/>
<path d="M310.18 49.38L477.135 145.762C483.775 149.595 487.864 156.678 487.864 164.344V550.619C487.864 555.002 483.12 557.742 479.324 555.551L312.369 459.187C305.729 455.355 301.639 448.271 301.639 440.605V54.3108C301.639 49.9282 306.383 47.1883 310.18 49.38Z" fill="#EBF0FF"/>
<path d="M469.277 504.798V506.728L320.266 420.735L320.308 98.1758L321.883 99.0843L469.235 184.212L469.277 504.798Z" fill="#D2D9FF"/>
<path d="M469.277 504.798L321.826 419.713L321.869 185.134L321.883 99.0842L469.235 184.212L469.249 270.19L469.277 504.798Z" fill="#FFE2CF"/>
<path d="M469.277 499.122L321.826 414.037L321.869 200.857C321.869 191.349 332.171 185.404 340.401 190.158L450.674 253.801C462.168 260.428 469.249 272.688 469.249 285.957L469.277 499.122Z" fill="#FBC97B"/>
<path d="M392.381 491.977C396.22 489.761 396.22 482.573 392.381 475.924C388.542 469.274 382.317 465.68 378.478 467.897C374.639 470.113 374.639 477.301 378.478 483.951C382.317 490.6 388.542 494.194 392.381 491.977Z" fill="#44AFFF"/>
<path fill-rule="evenodd" clip-rule="evenodd" d="M391.087 489.736C394.211 487.932 394.211 482.083 391.086 476.67C387.961 471.258 382.895 468.333 379.771 470.137C376.646 471.941 376.646 477.791 379.771 483.203C382.896 488.615 387.962 491.54 391.087 489.736Z" stroke="#BF7F4B" stroke-width="0.32868"/>
<path d="M393.444 484.563C393.444 486.89 392.692 488.593 391.458 489.515C389.996 490.594 387.839 490.58 385.441 489.189C381.027 486.635 377.438 480.434 377.438 475.326C377.438 472.573 378.487 470.7 380.148 469.976C381.567 469.338 383.412 469.536 385.441 470.714C389.854 473.253 393.444 479.468 393.444 484.563Z" fill="#002D99"/>
<path d="M393.444 484.563C393.444 486.89 392.692 488.593 391.458 489.515C390.053 490.112 388.208 489.899 386.207 488.749C381.78 486.194 378.204 479.993 378.204 474.885C378.204 472.586 378.942 470.898 380.148 469.975C381.567 469.337 383.412 469.536 385.441 470.713C389.854 473.253 393.444 479.468 393.444 484.563Z" fill="#EBF0FF"/>
<path d="M469.277 504.799L321.826 419.713L321.869 206.533C321.869 197.025 332.171 191.079 340.401 195.833L450.674 259.477C462.168 266.104 469.249 278.364 469.249 291.632L469.277 504.799Z" fill="#C3CCFF"/>
<path d="M469.248 291.632L321.868 206.533C321.868 197.025 332.17 191.079 340.4 195.833L450.673 259.477C462.167 266.104 469.248 278.364 469.248 291.632Z" fill="#A1B2FF"/>
<path d="M409.114 447.728L380.467 431.189C377.166 429.283 374.49 424.171 374.49 419.769C374.49 415.368 377.166 413.345 380.467 415.251L409.114 431.791C412.415 433.696 415.091 438.809 415.091 443.21C415.091 447.611 412.415 449.634 409.114 447.728Z" fill="#44AFFF"/>
<path d="M496.148 208.89V217.009L491.739 220.385L491.054 219.95V211.831C491.054 210.2 492.188 208.223 493.6 207.408C494.306 207 494.938 206.97 495.409 207.229C495.859 207.5 496.148 208.075 496.148 208.89Z" fill="#3054E5"/>
<path d="M496.148 219.48L496.834 219.915L496.148 227.586C496.148 229.217 495.013 231.194 493.601 232.009C492.189 232.825 491.055 232.158 491.055 230.526V222.42L496.148 219.48Z" fill="#3054E5"/>
<path d="M496.833 209.326V217.444L491.739 220.385V212.267C491.739 210.636 492.874 208.658 494.286 207.843C494.992 207.436 495.624 207.405 496.094 207.664C496.545 207.935 496.833 208.51 496.833 209.326Z" fill="#44AFFF"/>
<path d="M496.833 219.915V228.021C496.833 229.652 495.699 231.629 494.287 232.444C492.874 233.26 491.74 232.593 491.74 230.961V222.855L496.833 219.915Z" fill="#44AFFF"/>
<path fill-rule="evenodd" clip-rule="evenodd" d="M436.223 324.638C436.172 323.235 436.122 321.833 436.234 320.527C436.234 320.193 436.236 319.859 436.237 319.525C436.24 318.756 436.242 317.988 436.23 317.211C436.218 316.416 435.325 314.89 434.65 314.482C432.167 312.983 429.688 311.396 427.217 309.693C423.511 307.14 419.867 304.244 416.275 301.025C412.673 297.798 409.224 294.226 405.922 290.32C402.593 286.381 399.56 282.126 396.861 277.535L396.829 277.48C396.431 276.803 396.032 276.123 395.546 275.517C395.065 274.916 394.574 274.567 394.085 274.641C393.821 274.682 393.555 274.726 393.319 274.824C392.931 274.987 392.547 275.157 392.163 275.328C391.002 275.841 389.843 276.355 388.579 276.667C384.191 277.752 379.37 277.563 374.233 276.43C369.014 275.277 363.655 273.086 358.207 270.202C357.906 270.043 357.604 269.875 357.302 269.708C356.482 269.254 355.662 268.799 354.853 268.502C353.803 268.117 353.158 268.617 353.209 269.864C353.296 271.984 353.275 274.042 353.254 276.099C353.246 276.808 353.239 277.516 353.236 278.227C353.233 279.064 353.245 279.91 353.256 280.756C353.279 282.414 353.302 284.073 353.214 285.668C353.185 286.198 353.208 286.763 353.232 287.327C353.254 287.853 353.276 288.378 353.255 288.877C353.199 290.236 353.211 291.635 353.224 293.034C353.233 294.111 353.243 295.188 353.221 296.248C353.174 298.584 353.218 300.977 353.262 303.368C353.27 303.789 353.278 304.209 353.285 304.629C353.305 305.799 353.309 306.96 353.313 308.121C353.324 311.342 353.335 314.562 353.693 317.974C354.174 322.539 354.897 327.179 355.965 331.938C357.673 339.549 360.136 347.19 363.455 354.867C365.593 359.811 368.003 364.65 370.721 369.388C373.873 374.883 377.365 380.067 381.144 385.015C385.069 390.153 389.23 394.818 393.664 398.994C394.474 399.756 395.18 400.136 395.955 400.295C401.307 401.393 406.258 401.327 410.869 400.299C415.066 399.362 418.787 397.535 422.066 394.907C425.526 392.131 428.338 388.5 430.571 384.134C432.71 379.952 434.249 375.193 435.179 369.867C435.78 366.425 436.112 362.811 436.156 358.972C436.173 357.46 436.178 355.941 436.183 354.421C436.193 351.527 436.202 348.633 436.296 345.79C436.314 345.27 436.293 344.726 436.271 344.183C436.249 343.617 436.227 343.052 436.249 342.513C436.319 340.762 436.303 338.961 436.286 337.161C436.28 336.464 436.274 335.767 436.273 335.073C436.271 334.379 436.268 333.683 436.265 332.987C436.257 331.106 436.249 329.224 436.276 327.367C436.289 326.475 436.256 325.557 436.223 324.638ZM432.526 320.406C432.527 320.701 432.528 320.996 432.528 321.29C432.577 322.703 432.548 324.069 432.519 325.436C432.499 326.336 432.48 327.237 432.483 328.151C432.512 333.915 432.472 339.641 432.433 345.367C432.422 346.925 432.411 348.483 432.401 350.041C432.393 351.396 432.373 352.744 432.353 354.091C432.331 355.587 432.308 357.083 432.302 358.588C432.288 362.228 431.823 365.533 431.162 368.714C430.318 372.775 429.146 376.519 427.536 379.849C425.941 383.149 423.95 385.961 421.602 388.336C419.164 390.802 416.269 392.501 413.217 393.958C410.122 395.435 406.659 396.073 402.983 396.229C400.481 396.336 397.868 396.101 395.16 395.537C394.922 395.488 394.703 395.375 394.461 395.149C391.177 392.078 388.06 388.682 385.087 384.963C382.698 381.974 380.365 378.924 378.21 375.683C376.271 372.767 374.502 369.729 372.755 366.673C370.655 362.999 368.718 359.278 367.032 355.449C363.516 347.466 360.889 339.514 359.237 331.614C358.297 327.115 357.49 322.648 357.297 318.421C357.183 315.94 357.15 313.501 357.138 311.072C357.133 309.882 357.129 308.693 357.124 307.503C357.114 304.687 357.103 301.871 357.079 299.046C357.055 296.418 357.039 293.792 357.029 291.172C357.027 290.823 357.025 290.473 357.023 290.123C357.015 288.537 357.007 286.948 357.036 285.381C357.094 282.396 357.044 279.347 356.995 276.298C356.987 275.766 356.978 275.233 356.97 274.701C356.96 274.044 357.128 273.971 357.68 274.277C361.09 276.167 364.478 277.723 367.829 278.95C373.191 280.914 378.378 282.106 383.309 282.218C386.173 282.283 388.852 281.898 391.424 281.239C392.366 280.998 393.277 280.693 394.123 280.268C394.551 280.053 394.856 280.24 395.289 280.915C396.847 283.342 398.432 285.745 400.156 288.021C402.56 291.196 405.053 294.229 407.673 297.063C410.358 299.968 413.108 302.705 415.94 305.218C418.394 307.396 420.881 309.413 423.388 311.343C425.862 313.247 428.357 314.868 430.852 316.488C431.256 316.751 431.661 317.013 432.065 317.277C432.495 317.558 432.538 317.776 432.532 318.167C432.523 318.909 432.525 319.658 432.526 320.406Z" fill="white"/>
<path d="M374.935 346.033C374.988 342.299 374.881 338.479 374.593 334.564C374.454 332.68 374.043 330.693 373.66 328.723C373.224 326.483 373.022 324.37 373.03 322.315C373.038 320.041 373.033 317.776 373.524 315.833C374.305 312.739 375.645 310.274 377.49 308.371C380.188 305.589 383.731 304.577 388.038 305.159C390.538 305.497 393.122 306.411 395.802 307.963C400.336 310.589 404.39 314.632 408.106 319.69C411.902 324.857 414.988 330.362 417.144 336.312C417.844 338.244 418.358 340.156 418.75 342.048C419.318 344.797 419.929 347.573 420.075 350.164C420.191 352.216 420.244 354.242 420.248 356.242C420.253 358.835 420.218 361.406 420.251 364.017C420.279 366.237 420.144 368.371 419.989 370.482C419.884 371.932 419.225 372.232 418.082 371.629C417.338 371.236 416.722 370.371 416.515 369.412C416.317 368.491 416.284 367.646 416.31 366.828C416.451 362.45 416.577 358.06 416.492 353.547C416.433 350.452 416.256 347.296 415.728 343.984C414.761 337.918 412.487 331.958 408.857 326.087C406.323 321.989 403.474 318.38 400.182 315.444C397.616 313.155 395.018 311.746 392.415 310.803C390.219 310.007 388.16 309.691 386.244 309.906C382.563 310.318 379.75 312.137 378.131 315.826C376.982 318.443 376.607 321.647 376.786 325.296C376.934 328.318 377.747 331.556 378.158 334.66C378.321 335.885 378.501 337.115 378.519 338.278C378.591 342.91 378.751 347.591 378.577 352.083C378.564 352.414 378.611 352.785 378.575 353.097C378.456 354.13 377.764 354.543 376.828 354.182C376.116 353.906 374.94 352.102 374.937 351.267C374.932 349.518 374.935 347.777 374.935 346.033Z" fill="white"/>
<path d="M403.797 357.009C403.582 351.834 403.351 346.649 402.464 341.168C402.111 338.989 401.678 336.784 400.866 334.499C399.856 331.658 397.859 329.293 395.664 328.266C394.097 327.532 392.792 327.459 391.771 328.249C390.651 329.115 390.502 330.81 390.743 332.823C391.024 335.151 391.548 337.563 391.912 339.919C392.391 343.015 392.614 346 392.78 348.958C393.002 352.901 393.015 356.732 393.019 360.557C393.021 362.916 393.113 365.326 393.023 367.631C392.991 368.451 392.376 368.971 391.566 368.778C390.953 368.631 389.934 367.62 389.592 366.824C389.441 366.473 389.432 366.169 389.435 365.874C389.45 364.12 389.321 362.29 389.384 360.558C389.473 358.105 389.284 355.488 389.257 352.967C389.227 350.269 389.054 347.501 388.846 344.721C388.572 341.055 388.285 337.371 387.285 333.424C385.418 326.056 388.84 322.56 392.489 322.898C395.455 323.172 398.31 325.131 401.004 328.747C403.525 332.13 404.877 335.718 405.62 339.449C406.564 344.185 407.001 348.717 407.301 353.188C407.492 356.024 407.572 358.809 407.544 361.531C407.536 362.39 406.716 362.787 405.866 362.34C404.933 361.849 404.183 360.705 403.972 359.52C403.813 358.63 403.858 357.847 403.797 357.009Z" fill="white"/>
<path d="M395.631 300.507C401.266 303.638 406.561 308.432 411.43 314.626C415.269 319.511 418.376 324.889 420.823 330.658C422.919 335.6 424.308 340.48 425.416 345.348C426.141 348.536 426.807 351.704 427.11 354.762C427.173 355.392 427.207 356 427.08 356.517C426.869 357.369 426.31 357.583 425.427 357.132C424.597 356.709 424.021 355.952 423.711 354.856C423.358 353.608 423.379 352.492 423.176 351.297C422.446 346.986 421.499 342.633 420.159 338.175C418.901 333.985 417.341 329.86 415.15 325.806C412.305 320.537 408.919 315.897 404.902 311.943C401.752 308.843 398.524 306.381 395.196 304.601C390.764 302.23 386.617 301.109 382.931 301.944C382.357 302.074 381.755 302.14 381.126 302.136C380.212 302.13 379.368 301.38 378.84 300.095C378.275 298.719 378.445 297.675 379.269 297.451C382.467 296.58 385.948 296.595 389.862 297.908C391.743 298.541 393.623 299.25 395.631 300.507Z" fill="white"/>
<path d="M414.669 365.767C414.634 367.496 414.707 369.963 414.587 372.315C414.561 372.806 414.629 373.357 414.634 373.87C414.646 374.895 413.868 375.408 412.978 374.978C411.832 374.425 411.271 373.61 411.113 372.211C411.034 371.515 410.969 370.815 410.982 370.168C411.032 367.732 410.905 365.198 410.937 362.75C410.989 358.722 410.836 354.574 410.494 350.337C410.152 346.098 409.659 341.794 408.392 337.231C407.403 333.672 405.984 330.202 403.825 326.903C401.984 324.089 399.874 321.899 397.475 320.302C396.188 319.445 394.95 318.962 393.69 318.404C392.305 317.79 391.227 315.642 391.615 314.372C391.77 313.865 392.105 313.691 392.6 313.741C393.538 313.836 394.522 314.329 395.518 314.844C398.72 316.502 401.683 319.132 404.443 322.558C405.274 323.589 406.001 324.729 406.723 325.878C409.808 330.786 411.635 335.817 412.688 340.937C413.752 346.106 414.195 351.02 414.469 355.87C414.646 359.006 414.674 362.058 414.669 365.767Z" fill="white"/>
<path d="M389.339 315.349C389.316 316.016 389.094 316.393 388.749 316.628C388.077 317.086 387.372 317.491 386.727 317.99C384.663 319.59 383.771 322.382 383.469 325.811C383.231 328.515 383.549 331.449 384.159 334.536C384.973 338.658 385.395 342.619 385.641 346.519C385.897 350.592 385.959 354.552 385.923 358.461C385.914 359.432 385.898 360.401 385.763 361.291C385.69 361.763 385.529 362.139 385.265 362.405C384.78 362.895 383.998 362.666 383.255 361.828C382.362 360.821 382.099 360.148 382.112 359.131C382.156 355.521 382.236 351.929 382.094 348.215C381.877 342.54 381.22 336.683 380.012 330.589C379.127 326.132 379.494 322.404 380.522 319.129C381.245 316.823 382.273 314.868 383.808 313.502C384.542 312.85 385.418 312.438 386.333 312.116C386.936 311.904 387.653 312.16 388.401 313.057C389.042 313.825 389.279 314.61 389.339 315.349Z" fill="white"/>
<path d="M365.913 320.944C365.787 316.736 366.011 312.762 366.779 309.155C367.165 307.337 367.782 305.737 368.493 304.228C369.578 301.928 371.145 300.275 372.984 298.989C373.231 298.817 373.496 298.668 373.785 298.575C374.606 298.312 375.46 298.892 376.212 300.193C376.955 301.477 377.002 302.29 376.325 302.916C375.687 303.507 375.013 304.048 374.361 304.62C372.167 306.538 370.911 309.473 370.257 313.061C369.676 316.254 369.693 319.82 369.738 323.422C369.786 327.296 370.562 331.428 371.239 335.537C371.541 337.366 371.103 337.561 369.945 337.623C369.464 337.649 368.541 336.661 368.158 335.806C367.748 334.893 367.577 334.004 367.388 333.119C366.514 329.016 366.123 325.103 365.914 321.263C365.908 321.154 365.913 321.05 365.913 320.944Z" fill="white"/>
<path d="M396.267 367.061C396.267 363.218 396.321 359.404 396.248 355.52C396.198 352.904 396.151 350.287 396.032 347.629C395.846 343.47 395.164 339.132 394.426 334.762C394.341 334.261 394.245 333.747 394.328 333.318C394.476 332.551 394.946 332.244 395.61 332.506C396.457 332.841 397.28 333.697 397.612 334.636C398.182 336.247 398.402 337.78 398.656 339.319C399.329 343.394 399.617 347.305 399.912 351.215C400.057 353.135 400.043 354.981 400.072 356.844C400.116 359.691 400.155 362.537 400.155 365.36C400.155 366.995 400.078 368.585 400.031 370.192C400.014 370.775 400.079 371.403 399.98 371.94C399.803 372.904 399.041 373.184 398.046 372.603C397.286 372.158 396.701 371.149 396.544 370.015C396.404 369.01 396.43 368.088 396.267 367.061Z" fill="white"/>
<path d="M407.483 371.129C407.42 372.064 407.523 373.25 407.338 374.255C407.19 375.06 406.63 375.158 405.952 375.003C405.269 374.848 404.701 374.243 404.21 373.38C403.927 372.883 403.834 372.42 403.824 371.996C403.765 369.655 403.606 367.256 403.872 365.103C404.004 364.04 404.477 363.864 405.39 364.191C406.089 364.441 407.076 365.844 407.289 366.819C407.581 368.147 407.466 369.278 407.483 370.473C407.485 370.644 407.483 370.813 407.483 371.129Z" fill="white"/>
<path d="M264.285 526.681C269.056 524.015 273.589 521.219 277.851 518.28C279.901 516.866 281.492 515.264 283.12 513.686C284.972 511.891 287.171 510.286 289.751 508.809C292.606 507.175 295.419 505.541 298.903 504.346C304.451 502.443 310.42 501.225 316.779 500.622C326.076 499.74 334.993 500.484 343.572 502.694C348.552 503.976 352.997 505.709 356.85 507.941C363.368 511.717 367.085 516.314 368.804 521.502C370.56 526.801 370.361 532.048 367.599 537.229C366.701 538.912 365.427 540.502 363.912 542.027C361.713 544.243 359.568 546.498 356.652 548.424C354.342 549.949 351.929 551.43 349.443 552.872C346.221 554.741 342.938 556.579 339.752 558.472C337.043 560.083 334.089 561.563 331.122 563.019C329.084 564.019 327.287 563.962 325.57 563.052C324.452 562.46 324.2 561.58 324.952 560.804C325.672 560.059 326.654 559.436 327.732 558.858C333.499 555.763 339.245 552.655 344.69 549.369C348.423 547.115 351.976 544.769 354.967 542.165C360.445 537.394 362.967 532.157 362.447 526.42C362.085 522.416 360.432 518.632 356.983 515.149C354.294 512.433 350.438 510.338 345.991 508.577C342.239 507.091 338.185 506.007 333.779 505.365C325.312 504.131 316.965 504.272 308.866 506.255C303.121 507.662 298.313 509.814 294.149 512.515C290.699 514.754 288.416 517.423 285.434 519.83C284.257 520.78 283.112 521.74 281.701 522.585C276.08 525.951 270.585 529.389 264.607 532.551C264.167 532.784 263.805 533.07 263.338 533.281C261.794 533.975 259.782 533.985 258.213 533.335C257.017 532.84 256.727 531.052 257.762 530.45C259.93 529.19 262.111 527.937 264.285 526.681Z" fill="url(#paint0_linear)"/>
<path d="M312.947 546.586C318.937 542.769 324.906 538.939 329.825 534.623C331.78 532.908 333.596 531.139 334.691 529.156C336.054 526.691 334.688 524.156 331.228 522.504C328.757 521.325 326.029 520.73 322.837 520.874C319.337 521.031 316.9 522.19 314.912 523.74C312.613 525.534 310.739 527.488 308.587 529.336C305.759 531.765 302.517 534.008 299.188 536.206C294.748 539.138 289.998 541.902 285.235 544.658C282.299 546.357 279.492 548.131 276.421 549.754C275.329 550.331 273.351 550.451 271.843 549.974C270.702 549.614 269.762 548.462 270.015 547.746C270.128 547.43 270.487 547.208 270.861 546.996C273.081 545.74 275.087 544.368 277.384 543.147C280.635 541.418 283.491 539.455 286.577 537.628C289.878 535.673 292.956 533.608 295.975 531.519C299.954 528.765 303.931 525.993 306.693 522.735C311.851 516.653 323.604 515.558 331.065 517.319C337.131 518.75 340.854 521.348 342.166 525.071C343.393 528.555 341.839 531.702 338.792 534.697C334.923 538.5 330.214 541.945 325.287 545.29C322.162 547.411 318.862 549.45 315.406 551.399C314.316 552.014 312.05 551.959 310.772 551.284C309.369 550.544 309.176 549.408 310.196 548.466C310.962 547.76 312.034 547.214 312.947 546.586Z" fill="url(#paint1_linear)"/>
<path d="M365.784 502.502C374.049 507.1 379.511 512.753 382.303 519.238C384.505 524.353 384.509 529.517 382.6 534.689C380.964 539.12 377.877 543.212 374.2 547.177C371.791 549.775 369.276 552.334 366.118 554.661C365.467 555.141 364.783 555.594 363.862 555.912C362.346 556.438 360.872 556.36 359.524 555.669C358.258 555.018 357.96 554.234 358.657 553.316C359.45 552.271 360.886 551.475 361.939 550.531C365.74 547.123 369.124 543.594 371.789 539.828C374.296 536.286 376.07 532.668 376.397 528.837C376.822 523.86 375.293 519.111 371.546 514.593C368.608 511.051 364.705 507.936 359.737 505.27C353.12 501.72 345.558 499.188 336.552 498.258C335.148 498.113 333.766 497.91 332.413 497.645C330.445 497.261 329.558 496.37 330.021 495.226C330.517 493.999 332.185 493.319 334.244 493.5C342.24 494.203 349.742 495.66 356.56 498.233C359.836 499.47 363.011 500.762 365.784 502.502Z" fill="url(#paint2_linear)"/>
<path d="M325.512 557.413C323.28 558.643 320.363 560.451 317.167 562.093C316.499 562.437 315.958 562.861 315.331 563.233C314.076 563.977 311.758 564.023 310.371 563.342C308.585 562.467 308.391 561.647 309.794 560.574C310.492 560.04 311.224 559.509 312.06 559.049C315.204 557.314 318.092 555.438 321.213 553.688C326.349 550.809 331.193 547.758 335.739 544.564C340.287 541.37 344.59 538.066 347.544 534.253C349.848 531.278 351.11 528.189 350.56 524.916C350.092 522.125 348.268 519.671 345.075 517.522C343.362 516.37 341.29 515.508 339.265 514.582C337.039 513.564 337.39 511.569 339.813 510.816C340.78 510.516 341.722 510.529 342.727 510.771C344.636 511.23 346.147 511.993 347.655 512.779C352.507 515.304 355.625 518.43 357.316 522.045C357.824 523.132 357.973 524.256 358.1 525.383C358.643 530.2 356.313 534.583 352.203 538.708C348.054 542.872 342.883 546.595 337.424 550.202C333.894 552.535 330.149 554.743 325.512 557.413Z" fill="url(#paint3_linear)"/>
<path d="M333.675 510.573C332.794 511.044 331.845 511.224 330.805 511.249C328.783 511.3 326.754 511.298 324.738 511.389C318.284 511.682 312.873 513.323 307.945 515.667C304.057 517.515 301.085 519.76 298.552 522.237C295.17 525.544 291.141 528.571 286.806 531.483C282.28 534.522 277.475 537.4 272.521 540.2C271.291 540.895 270.048 541.587 268.644 542.171C267.899 542.481 267.08 542.685 266.179 542.767C264.52 542.917 263.117 542.428 262.556 541.516C261.883 540.42 262.156 539.826 263.451 539.099C268.049 536.517 272.704 533.964 277.029 531.23C283.638 527.053 289.525 522.562 294.515 517.672C298.164 514.094 303.606 511.561 309.911 509.631C314.352 508.271 319.009 507.29 324.031 506.945C326.429 506.78 328.833 506.849 331.214 506.997C332.782 507.095 334.009 507.577 334.508 508.535C334.935 509.353 334.468 510.017 333.675 510.573Z" fill="url(#paint4_linear)"/>
<path d="M276.087 504.863C281.063 501.781 286.505 499.012 292.662 496.733C295.765 495.584 299.093 494.689 302.511 493.898C307.725 492.693 313.171 492.154 318.749 491.993C319.495 491.971 320.255 491.974 320.995 492.027C323.098 492.18 324.219 492.952 324.222 494.201C324.225 495.435 323.312 496.04 321.07 496.209C318.952 496.369 316.823 496.479 314.7 496.619C307.568 497.088 301.195 498.68 295.306 500.992C290.067 503.049 285.656 505.624 281.26 508.237C276.532 511.047 273.054 514.345 269.393 517.586C267.763 519.028 266.575 518.986 263.994 518.55C262.922 518.368 262.162 517.273 262.399 516.498C262.653 515.671 263.392 514.959 264.088 514.244C267.318 510.925 271.354 507.945 275.692 505.092C275.814 505.012 275.955 504.939 276.087 504.863Z" fill="url(#paint5_linear)"/>
<path d="M284.143 550.694C288.937 547.926 293.811 545.203 298.497 542.375C301.653 540.47 304.816 538.567 307.874 536.603C312.659 533.531 316.596 530.123 320.452 526.67C320.894 526.273 321.328 525.863 322.042 525.589C323.321 525.098 324.718 525.073 325.825 525.538C327.238 526.131 327.947 527.09 327.494 527.904C326.717 529.301 325.28 530.496 323.909 531.711C320.28 534.924 316.024 537.862 311.783 540.8C309.701 542.243 307.369 543.566 305.107 544.919C301.65 546.988 298.186 549.053 294.666 551.087C292.627 552.264 290.476 553.377 288.37 554.515C287.607 554.927 286.963 555.407 286.079 555.753C284.495 556.372 282.499 556.259 281.076 555.426C279.987 554.789 279.982 553.82 281.056 552.938C282.009 552.155 283.214 551.501 284.143 550.694Z" fill="url(#paint6_linear)"/>
<path d="M303.299 558.287C301.998 558.934 300.74 559.832 299.088 560.478C297.762 560.996 296.432 560.834 295.16 560.441C293.878 560.045 293.405 559.373 293.42 558.547C293.429 558.072 293.806 557.7 294.311 557.391C297.103 555.68 299.751 553.886 303.014 552.447C304.624 551.736 305.865 551.806 307.431 552.42C308.629 552.891 309.011 554.312 308.256 555.103C307.228 556.181 305.57 556.948 304.117 557.815C303.909 557.939 303.694 558.059 303.299 558.287Z" fill="url(#paint7_linear)"/>
<path opacity="0.7" d="M355.482 187.392L269.095 137.517C267.381 136.527 265.992 133.873 265.992 131.589V84.0997C265.992 81.8147 267.381 80.7649 269.095 81.7542L355.482 131.629C357.196 132.619 358.585 135.273 358.585 137.558V185.047C358.585 187.331 357.196 188.381 355.482 187.392Z" fill="#44AFFF"/>
<path opacity="0.64" d="M343.559 143.845L281.078 107.771C280.504 107.44 280.039 106.551 280.039 105.785V98.4216C280.039 97.6558 280.504 97.3041 281.078 97.6354L343.559 133.709C344.133 134.04 344.598 134.929 344.598 135.695V143.058C344.599 143.824 344.134 144.176 343.559 143.845Z" fill="white"/>
<path opacity="0.64" d="M343.559 159.022L281.078 122.948C280.504 122.617 280.039 121.728 280.039 120.962V113.599C280.039 112.833 280.504 112.481 281.078 112.812L343.559 148.886C344.133 149.217 344.598 150.106 344.598 150.872V158.235C344.599 159.001 344.134 159.353 343.559 159.022Z" fill="white"/>
<path opacity="0.48" d="M303.519 151.246L288.837 142.769C286.954 141.682 285.427 138.764 285.427 136.253C285.427 133.742 286.954 132.588 288.837 133.675L303.519 142.152C305.402 143.239 306.929 146.156 306.929 148.667C306.929 151.179 305.402 152.333 303.519 151.246Z" fill="#3054E5"/>
<path opacity="0.48" d="M335.756 169.858L321.075 161.381C319.191 160.294 317.665 157.377 317.665 154.866C317.665 152.355 319.192 151.2 321.075 152.288L335.756 160.764C337.64 161.852 339.166 164.769 339.166 167.28C339.166 169.791 337.64 170.945 335.756 169.858Z" fill="#3054E5"/>
<path d="M412.672 130.047C412.672 130.487 412.586 130.856 412.445 131.14C412.247 131.551 411.906 131.778 411.48 131.778C411.239 131.778 410.984 131.707 410.7 131.551L385.64 117.077C384.547 116.452 383.653 114.75 383.653 113.288C383.653 112.564 383.866 112.039 384.221 111.784C384.405 111.628 384.618 111.557 384.859 111.557C385.1 111.557 385.355 111.628 385.639 111.784L410.699 126.258C411.792 126.883 412.672 128.585 412.672 130.047Z" fill="#072E8C"/>
<path d="M412.673 130.047C412.673 130.487 412.588 130.856 412.446 131.14C412.262 131.296 412.049 131.381 411.808 131.381C411.567 131.381 411.297 131.31 411.013 131.14L385.953 116.68C384.861 116.055 383.967 114.353 383.967 112.891C383.967 112.437 384.052 112.068 384.222 111.784C384.407 111.628 384.619 111.557 384.86 111.557C385.101 111.557 385.356 111.628 385.64 111.784L410.7 126.258C411.793 126.883 412.673 128.585 412.673 130.047Z" fill="#4511AD"/>
<path d="M380.457 113.956C381.657 113.263 381.657 111.017 380.457 108.938C379.257 106.86 377.312 105.737 376.112 106.43C374.912 107.123 374.912 109.369 376.112 111.447C377.312 113.525 379.257 114.648 380.457 113.956Z" fill="#FBC97B"/>
<path d="M380.09 113.321C381.088 112.745 381.088 110.877 380.091 109.15C379.093 107.422 377.476 106.489 376.478 107.065C375.481 107.64 375.48 109.508 376.478 111.236C377.475 112.963 379.093 113.897 380.09 113.321Z" fill="#4511AD"/>
<path d="M517.166 354.46L517.136 355.393V355.403L517.126 355.453L512.25 383.585L512.22 383.787C512.22 383.787 512.22 383.787 512.23 383.797V383.807C512.128 384.263 511.844 384.648 511.358 384.932C508.671 386.483 500.825 384.456 493.831 380.421C488.772 377.512 485.549 374.329 485.153 372.2V372.19L480.237 339.547L480.186 339.213C480.095 338.24 480.48 337.449 481.403 336.922C485.062 334.803 495.767 337.561 505.306 343.075C512.351 347.141 516.801 351.571 517.166 354.46Z" fill="#44AFFF"/>
<path d="M517.135 355.393V355.403L517.125 355.453C516.973 356.031 516.588 356.518 515.97 356.873C512.31 358.991 501.605 356.234 492.056 350.719C485.193 346.755 480.793 342.437 480.236 339.548L480.185 339.213C480.094 338.24 480.479 337.45 481.402 336.922C485.061 334.804 495.766 337.561 505.305 343.076C512.351 347.141 516.801 351.571 517.166 354.46C517.217 354.795 517.206 355.109 517.135 355.393Z" fill="#7E98FF"/>
<path d="M505.69 349.103C505.704 349.23 505.704 349.344 505.675 349.458V349.472C505.619 349.699 505.462 349.884 505.235 350.011C504.639 350.352 503.547 350.366 502.227 350.082C500.454 349.727 498.24 348.876 496.168 347.684C495.756 347.443 495.359 347.201 495.004 346.96C493.074 345.669 491.882 344.377 491.698 343.441L491.67 343.328C491.641 342.959 491.783 342.647 492.138 342.448C492.706 342.122 493.741 342.108 495.004 342.349C496.792 342.689 499.063 343.555 501.191 344.79C501.56 345.003 501.915 345.216 502.242 345.442C504.299 346.776 505.562 348.151 505.69 349.103Z" fill="#3964FF"/>
<path d="M527.456 274.916C526.463 276.647 524.249 277.229 522.518 276.236L502.241 264.543V281.713L516.247 289.773C517.978 290.766 518.574 292.98 517.58 294.711C516.913 295.875 515.693 296.528 514.444 296.528C513.834 296.528 513.21 296.372 512.642 296.045L502.24 290.071V298.642L521.638 309.795C523.37 310.788 523.965 313.002 522.972 314.733C522.305 315.897 521.085 316.549 519.836 316.549C519.226 316.549 518.601 316.394 518.033 316.067L502.239 306.985V349.684C502.239 349.826 502.225 349.953 502.225 350.081C500.451 349.726 498.237 348.874 496.165 347.683C495.754 347.441 495.357 347.2 495.002 346.959V258.271C495.002 256.979 495.683 255.787 496.804 255.134C497.925 254.496 499.302 254.496 500.423 255.134L526.136 269.963C527.868 270.971 528.464 273.185 527.456 274.916Z" fill="#4511AD"/>
<path d="M506.917 362.347V364.283C502.112 363.137 496.354 360.837 490.931 357.714C490.333 357.37 489.755 357.025 489.197 356.66V354.724C489.4 354.856 489.603 354.978 489.805 355.099C490.17 355.333 490.546 355.555 490.931 355.768C496.354 358.901 502.112 361.202 506.917 362.347Z" fill="#FB9C6D"/>
<path d="M506.917 362.347V363.817C502.244 362.631 496.73 360.391 491.539 357.4C490.941 357.055 490.363 356.71 489.806 356.345V355.098C490.17 355.332 490.546 355.555 490.931 355.768C496.354 358.901 502.112 361.201 506.917 362.347Z" fill="#FBC97B"/>
<path d="M546.971 504.758L526.69 516.445L432.033 461.815L452.313 450.107L546.971 504.758Z" fill="#7E98FF"/>
<path d="M432.036 461.814V571.093L479.145 598.292C479.155 598.297 479.16 598.303 479.16 598.303L526.691 625.743V516.443L452.826 473.817L452.811 473.802L432.036 461.814Z" fill="#44AFFF"/>
<path d="M526.69 516.445V625.745L546.971 614.037V504.758L526.69 516.445Z" fill="#081773"/>
<path d="M473.308 545.363V564.767C473.308 568.574 475.981 573.205 479.278 575.111C481.993 576.677 484.285 575.91 485.011 573.468C484.486 573.339 483.935 573.112 483.357 572.783C480.061 570.877 477.382 566.246 477.382 562.439V543.034L473.308 545.363Z" fill="#FBC97B"/>
<path d="M463.006 521.935C463.006 529.879 467.276 539.13 473.309 545.363L477.384 543.035V562.44C477.384 566.246 480.062 570.877 483.359 572.783C483.936 573.113 484.487 573.339 485.013 573.468C485.173 572.943 485.255 572.335 485.255 571.66V552.26C486.733 552.44 488.103 552.316 489.329 551.909C490.586 551.497 491.699 550.787 492.611 549.803C494.47 547.819 495.557 544.734 495.557 540.726C495.557 530.346 488.268 517.725 479.279 512.533C475.843 510.555 472.659 509.937 470.032 510.519C470.027 510.524 470.022 510.524 470.017 510.524C465.782 511.473 463.006 515.526 463.006 521.935Z" fill="#FB9C6D"/>
<path d="M467.08 519.607C467.08 527.55 471.35 536.802 477.383 543.035V562.44C477.383 566.246 480.062 570.878 483.358 572.783C483.935 573.113 484.486 573.339 485.012 573.468C485.172 572.943 485.254 572.335 485.254 571.66V552.26C486.733 552.44 488.102 552.316 489.328 551.909V549.931C490.493 550.071 491.595 550.024 492.61 549.803C492.775 549.628 492.935 549.442 493.084 549.246C494.655 547.263 495.556 544.379 495.556 540.726C495.556 530.347 488.267 517.726 479.278 512.534C475.842 510.556 472.658 509.938 470.032 510.519C470.026 510.525 470.026 510.525 470.021 510.53C468.167 512.513 467.08 515.599 467.08 519.607Z" fill="#192572"/>
<path d="M463.005 521.935C463.005 529.879 467.275 539.13 473.308 545.363L477.382 543.035C471.35 536.802 467.079 527.55 467.079 519.607C467.079 515.599 468.166 512.513 470.021 510.53L470.016 510.525C465.782 511.473 463.005 515.527 463.005 521.935Z" fill="#FB9C6D"/>
<path d="M485.253 552.26C486.731 552.441 488.101 552.317 489.328 551.91L490.181 550.745L489.328 549.932L485.253 552.26Z" fill="#FB9C6D"/>
<path d="M526.653 532.078L546.932 524.296L546.992 520.37L549.327 521.743V520.546L552.384 520.369L552.385 524.272L552.38 524.271C552.393 524.737 552.174 525.207 551.713 525.474L529.812 538.106C527.881 539.22 525.502 539.218 523.573 538.1L516.551 534.03V530.105L526.653 532.078Z" fill="#F9BA7B"/>
<path d="M546.932 520.37L526.653 532.078L519.93 528.154L516.55 530.105L523.572 534.175C525.501 535.293 527.88 535.295 529.811 534.182L551.712 521.549C552.605 521.035 552.61 519.748 551.722 519.226L546.991 516.445L546.932 520.37Z" fill="#FBC97B"/>
<path d="M526.653 547.504L546.932 539.722L546.992 535.796L549.327 537.169V535.972L552.384 535.795L552.385 539.698L552.38 539.697C552.393 540.163 552.174 540.634 551.713 540.9L529.812 553.532C527.881 554.646 525.502 554.644 523.573 553.526L516.551 549.456V545.531L526.653 547.504Z" fill="#F9BA7B"/>
<path d="M546.932 535.796L526.653 547.504L519.93 543.58L516.55 545.532L523.572 549.601C525.501 550.719 527.88 550.722 529.811 549.608L551.712 536.975C552.605 536.461 552.61 535.174 551.722 534.652L546.991 531.871L546.932 535.796Z" fill="#FBC97B"/>
<path d="M526.653 578.357L546.932 570.575L546.992 566.649L549.327 568.021V566.825L552.384 566.647L552.385 570.551L552.38 570.55C552.393 571.016 552.174 571.486 551.713 571.753L529.812 584.385C527.881 585.499 525.502 585.497 523.573 584.378L516.551 580.309V576.384L526.653 578.357Z" fill="#F9BA7B"/>
<path d="M546.932 566.649L526.653 578.357L519.93 574.433L516.55 576.384L523.572 580.454C525.501 581.571 527.88 581.574 529.811 580.461L551.712 567.828C552.605 567.313 552.61 566.027 551.722 565.505L546.991 562.724L546.932 566.649Z" fill="#FBC97B"/>
<path d="M526.653 593.783L546.932 586.001L546.992 582.075L549.327 583.448V582.251L552.384 582.074L552.385 585.977L552.38 585.976C552.393 586.442 552.174 586.913 551.713 587.179L529.812 599.811C527.881 600.925 525.502 600.923 523.573 599.805L516.551 595.735V591.81L526.653 593.783Z" fill="#F9BA7B"/>
<path d="M546.932 582.075L526.653 593.783L519.93 589.859L516.55 591.811L523.572 595.88C525.501 596.998 527.88 597 529.811 595.887L551.712 583.254C552.605 582.74 552.61 581.453 551.722 580.931L546.991 578.15L546.932 582.075Z" fill="#FBC97B"/>
<path d="M526.653 609.21L546.932 601.427L546.992 597.501L549.327 598.874V597.677L552.384 597.5L552.385 601.403L552.38 601.402C552.393 601.868 552.174 602.339 551.713 602.605L529.812 615.238C527.881 616.351 525.502 616.349 523.573 615.231L516.551 611.161V607.236L526.653 609.21Z" fill="#F9BA7B"/>
<path d="M546.932 597.501L526.653 609.21L519.93 605.285L516.55 607.237L523.572 611.306C525.501 612.424 527.88 612.427 529.811 611.313L551.712 598.681C552.605 598.166 552.61 596.879 551.722 596.357L546.991 593.576L546.932 597.501Z" fill="#FBC97B"/>
<path d="M523.366 495.476L513.153 501.373L502.939 495.476L513.167 489.572L523.366 495.476Z" fill="#EBF0FF"/>
<path d="M523.366 497.27L513.153 503.167L502.939 497.27V495.476L513.153 501.373L523.366 495.476V497.27Z" fill="#E4EBFF"/>
<path d="M507.478 496.018C507.669 496.679 508.206 497.314 509.09 497.82C511.342 499.119 514.993 499.119 517.242 497.82C518.122 497.31 518.659 496.676 518.846 496.018C519.145 494.994 518.612 493.905 517.242 493.115C514.993 491.815 511.343 491.815 509.09 493.115C507.724 493.905 507.187 494.994 507.478 496.018Z" fill="#D2D9FF"/>
<path d="M507.479 496.018C507.669 496.68 508.206 497.314 509.09 497.82C511.342 499.12 514.993 499.12 517.242 497.82C518.122 497.31 518.659 496.676 518.846 496.018C518.659 495.361 518.122 494.727 517.242 494.216C514.993 492.917 511.343 492.917 509.09 494.216C508.21 494.726 507.673 495.36 507.479 496.018Z" fill="#192572"/>
<path d="M476.046 468.721L465.834 474.618L455.62 468.721L465.847 462.817L476.046 468.721Z" fill="#EBF0FF"/>
<path d="M476.046 470.515L465.834 476.412L455.62 470.515V468.721L465.834 474.618L476.046 468.721V470.515Z" fill="#E4EBFF"/>
<path d="M460.16 469.262C460.351 469.923 460.888 470.558 461.771 471.064C464.024 472.364 467.674 472.364 469.924 471.064C470.803 470.554 471.34 469.92 471.527 469.262C471.827 468.239 471.294 467.149 469.924 466.359C467.674 465.06 464.025 465.06 461.771 466.359C460.405 467.149 459.868 468.239 460.16 469.262Z" fill="#D2D9FF"/>
<path d="M460.162 469.263C460.332 469.845 460.765 470.407 461.47 470.881C461.563 470.943 461.666 471.005 461.769 471.067C464.025 472.365 467.672 472.365 469.923 471.067C470.032 471.005 470.129 470.943 470.227 470.876C470.928 470.402 471.36 469.846 471.525 469.263C471.36 468.682 470.928 468.125 470.227 467.651C470.129 467.584 470.031 467.522 469.923 467.46C467.672 466.162 464.025 466.162 461.769 467.46C461.665 467.522 461.568 467.584 461.47 467.646C460.77 468.12 460.332 468.681 460.162 469.263Z" fill="#192572"/>
<path d="M461.47 432.272V470.881C461.562 470.942 461.666 471.004 461.768 471.066C464.024 472.364 467.671 472.364 469.923 471.066C470.031 471.004 470.128 470.942 470.226 470.875V432.272C470.226 427.806 472.534 423.803 476.408 421.567C480.277 419.337 484.897 419.337 488.766 421.567C501.109 428.697 508.768 441.972 508.764 456.22L508.753 485.243C508.753 487.664 510.711 489.621 513.132 489.627C514.343 489.627 515.434 489.137 516.228 488.344C517.021 487.551 517.51 486.453 517.51 485.248L517.521 456.225C517.526 438.855 508.187 422.67 493.145 413.985C486.536 410.168 478.639 410.168 472.03 413.985C465.416 417.802 461.47 424.638 461.47 432.272Z" fill="#FBC97B"/>
<path d="M432.036 461.814V571.093L479.145 598.292C478.496 597.751 457.736 580.437 454.187 559.482C450.581 538.187 452.826 473.816 452.826 473.816L452.811 473.801L432.036 461.814Z" fill="#3964FF"/>
<path d="M82.9401 551.289C115.765 551.289 142.375 535.926 142.375 516.974C142.375 498.022 115.765 482.659 82.9401 482.659C50.1149 482.659 23.5049 498.022 23.5049 516.974C23.5049 535.926 50.1149 551.289 82.9401 551.289Z" fill="#DBDFFF"/>
<path d="M79.7842 418.713C79.7842 412.661 84.0334 405.301 89.2751 402.275C91.8849 400.768 94.2487 400.62 95.9644 401.598V401.597L95.9842 401.609C95.9855 401.61 95.9868 401.611 95.9874 401.611L98.8404 403.257L97.9398 403.585C97.9398 403.585 97.8984 403.57 97.8313 403.547C98.4302 404.638 98.7655 406.054 98.7655 407.755C98.7655 413.807 94.5163 421.167 89.2745 424.194C88.082 424.882 86.9428 425.283 85.8911 425.427L85.2738 426.42L82.5786 424.867V424.867C80.853 423.878 79.7842 421.748 79.7842 418.713Z" fill="#3054E5"/>
<path fill-rule="evenodd" clip-rule="evenodd" d="M58.5078 436.996V424.982C58.5078 424.225 59.037 423.308 59.695 422.929L68.9395 417.592C69.3161 415.978 69.7967 414.362 70.3784 412.755L63.8397 408.979C63.3749 408.715 63.3749 407.845 63.8397 407.044L71.1975 394.301C71.6622 393.496 72.4123 393.063 72.877 393.331L79.4125 397.104C80.5143 395.805 81.6738 394.576 82.8821 393.443V382.769C82.8821 382.011 83.4152 381.088 84.0679 380.711L94.4759 374.702C94.798 374.515 95.0892 374.498 95.3029 374.615L95.3035 374.613L95.3134 374.619C95.3137 374.62 95.314 374.62 95.3144 374.62C95.3147 374.62 95.315 374.621 95.3154 374.621L98.1618 376.264L96.617 378.34L95.6612 378.057V386.062C96.8694 385.799 98.029 385.685 99.1333 385.715L105.666 374.4C106.13 373.596 106.884 373.161 107.345 373.431L114.702 377.679C115.167 377.943 115.167 378.813 114.702 379.614L108.173 390.922V390.926C108.751 391.868 109.236 392.931 109.612 394.109L118.848 388.777C119.171 388.59 119.464 388.57 119.678 388.688L119.678 388.687L119.685 388.691L119.69 388.694L122.531 390.333L121.2 392.546L120.036 392.246V401.472C120.036 402.23 119.503 403.153 118.847 403.532L109.615 408.862C109.238 410.478 108.754 412.101 108.176 413.71L114.702 417.478C115.166 417.746 115.166 418.612 114.702 419.417L107.344 432.161C106.883 432.963 106.13 433.398 105.665 433.13L99.1392 429.359C98.0349 430.668 96.872 431.898 95.6605 433.033V443.693C95.6605 444.451 95.1307 445.368 94.4746 445.746L87.0714 450.02L88.5669 450.293L86.0275 453.452L83.2344 451.84C83.2329 451.839 83.2314 451.839 83.2299 451.838C83.2281 451.837 83.2263 451.836 83.2246 451.835L83.214 451.829L83.2147 451.827C83.0089 451.7 82.8808 451.44 82.8808 451.071V440.407C81.6725 440.669 80.5129 440.78 79.4086 440.746L72.8764 452.061C72.4116 452.865 71.6616 453.299 71.1968 453.03L63.839 448.783C63.3742 448.514 63.3742 447.648 63.839 446.843L70.3745 435.524C69.7967 434.586 69.3122 433.527 68.9355 432.349L61.8249 436.454L62.9785 437.095L61.6618 439.386L58.8569 437.767L58.8529 437.765L58.8457 437.761L58.8464 437.76C58.6373 437.633 58.5078 437.37 58.5078 436.996ZM75.2168 415.549C74.6554 417.685 74.3497 419.815 74.3497 421.849C74.3497 423.882 74.6548 425.656 75.2142 427.141C75.3798 427.586 75.5718 428.004 75.7828 428.396C77.254 431.136 79.7716 432.593 82.8803 432.501C83.3221 432.49 83.7763 432.445 84.2443 432.366L84.2476 432.365C85.8194 432.109 87.5088 431.487 89.2758 430.467C91.0368 429.45 92.7256 428.123 94.2947 426.568C94.7621 426.106 95.217 425.627 95.6587 425.128C98.7707 421.628 101.292 417.262 102.766 412.817C102.977 412.185 103.166 411.551 103.331 410.915C103.893 408.78 104.198 406.649 104.198 404.616C104.198 402.58 103.893 400.801 103.328 399.312C103.162 398.868 102.974 398.452 102.763 398.063C101.288 395.326 98.7674 393.873 95.6587 393.969C95.2137 393.983 94.7595 394.023 94.2881 394.104C92.7223 394.363 91.0329 394.985 89.2758 396C87.5147 397.016 85.8226 398.346 84.2535 399.901C83.7829 400.364 83.3247 400.849 82.8796 401.35C79.7743 404.846 77.2599 409.201 75.7854 413.638C75.5744 414.274 75.3825 414.91 75.2168 415.549Z" fill="#3054E5"/>
<path d="M37.1624 420.547C37.2663 420.264 37.3918 419.979 37.5325 419.697C37.76 419.242 38.0321 418.794 38.3496 418.367C38.6671 417.94 39.0057 417.565 39.3521 417.248C39.5684 417.049 39.7866 416.875 40.0048 416.725C40.7444 416.207 41.4938 415.948 42.1472 415.982C42.3404 415.991 42.5252 416.029 42.6987 416.092C42.7947 416.126 42.8861 416.172 42.9748 416.222L42.9755 416.218L45.4386 417.644L45.127 418.989L44.0384 419.012C43.9917 419.608 43.8478 420.248 43.6072 420.893C43.5033 421.176 43.3804 421.461 43.2384 421.745L43.2364 421.748C43.009 422.202 42.7368 422.65 42.4193 423.077C42.1018 423.504 41.7653 423.877 41.4188 424.194C41.2045 424.389 40.9856 424.568 40.7674 424.718C40.6155 424.824 40.463 424.916 40.3112 425L40.6786 425.339L40.2185 426.624L37.8158 425.234L37.8178 425.232C37.6383 425.133 37.4727 425.002 37.3281 424.834C37.1171 424.59 36.9626 424.29 36.8613 423.948C36.7989 423.737 36.7542 423.511 36.7325 423.27C36.6556 422.459 36.8061 421.508 37.1624 420.547Z" fill="#F8B97B"/>
<path fill-rule="evenodd" clip-rule="evenodd" d="M25.4466 428.834L25.4472 428.833C25.3466 428.777 25.296 428.639 25.3223 428.449L26.1657 423.11C26.2124 422.813 26.4398 422.507 26.6738 422.426L32.128 420.541C32.4409 419.651 32.8294 418.754 33.2856 417.874L30.2039 414.308C30.0724 414.156 30.1243 413.816 30.3215 413.55L33.8936 408.742C34.0606 408.518 34.2769 408.421 34.4195 408.488L34.4202 408.486L34.43 408.492C34.4333 408.493 34.436 408.495 34.4386 408.497L36.8905 409.914L36.8412 410.196C36.8412 410.196 36.69 410.899 36.696 410.928C36.6966 410.932 36.6388 410.927 36.5461 410.918L37.5722 412.105C38.2408 411.471 38.9284 410.92 39.616 410.463L40.7105 403.533C40.7571 403.235 40.9846 402.929 41.2186 402.848L45.4211 401.396C45.502 401.368 45.5716 401.373 45.6275 401.4L45.6288 401.398L45.64 401.404C45.6426 401.406 45.6453 401.407 45.6472 401.408L48.111 402.834L47.8908 403.215L45.4881 404.224L45.3968 404.092L44.6671 408.711C45.2804 408.725 45.8615 408.834 46.3973 409.055L51.0264 402.824C51.1894 402.605 51.4004 402.504 51.5431 402.561C51.5438 402.56 51.5444 402.558 51.5444 402.558L51.5569 402.565C51.5648 402.569 51.5727 402.573 51.5799 402.578L54.0358 403.998L53.7354 405.058L54.0023 405.367C54.1337 405.519 54.0772 405.86 53.88 406.126L49.2509 412.357C49.4678 413.007 49.5993 413.722 49.6558 414.484L55.106 412.601C55.1908 412.571 55.2638 412.577 55.3216 412.608L55.3223 412.608L55.3255 412.61C55.3275 412.61 55.3288 412.611 55.3308 412.612L57.7992 414.041L57.7387 414.407C57.7387 414.407 55.5655 415.742 54.9522 416.111L54.6011 418.332C54.5545 418.63 54.327 418.935 54.093 419.016L48.6428 420.9C48.3253 421.792 47.9394 422.685 47.4806 423.568L50.5623 427.135C50.6938 427.286 50.6419 427.626 50.4446 427.892L47.7482 431.521L48.6895 431.688L48.7769 434.364L46.3657 432.963V432.961C46.3322 432.949 46.3013 432.932 46.2763 432.903L43.1946 429.337C42.5235 429.974 41.8385 430.523 41.1502 430.985L40.0564 437.909C40.0097 438.207 39.7823 438.513 39.5482 438.594L38.3591 439.005L39.0664 439.26L37.5748 441.455L35.1242 440.037C35.0263 439.979 34.9776 439.841 35.0072 439.655L36.1017 432.725C35.4877 432.718 34.9047 432.605 34.3709 432.387L30.8994 437.06C31.6225 437.203 32.456 437.374 32.4823 437.4C32.5296 437.447 31.6487 440.29 31.6487 440.29L29.2205 438.882L29.2211 438.88C29.1928 438.869 29.1666 438.852 29.1449 438.827L26.7672 436.075C26.6364 435.923 26.6923 435.582 26.8895 435.316L31.5186 429.085C31.3036 428.437 31.1702 427.72 31.1183 426.956L28.9569 427.703L27.8992 430.253L25.4466 428.834ZM36.0822 419.175C35.8706 419.601 35.6813 420.031 35.5241 420.458C34.9864 421.908 34.7596 423.344 34.8753 424.568C34.9075 424.93 34.9746 425.272 35.0693 425.591C35.2224 426.106 35.4551 426.559 35.7739 426.927C36.0928 427.296 36.4734 427.554 36.8967 427.705C37.1603 427.8 37.4397 427.853 37.7316 427.866C38.715 427.92 39.845 427.53 40.9625 426.751C41.2918 426.524 41.6218 426.256 41.9452 425.96C42.4678 425.482 42.976 424.919 43.4545 424.275C43.9331 423.631 44.3446 422.956 44.6871 422.269L44.6897 422.265C44.904 421.837 45.0887 421.408 45.2458 420.98C45.7855 419.533 46.0123 418.097 45.894 416.877C45.8618 416.515 45.7987 416.172 45.7027 415.85C45.5502 415.335 45.3155 414.881 44.9967 414.512C44.6779 414.143 44.2992 413.887 43.8759 413.736C43.6136 413.643 43.3356 413.584 43.0437 413.572C42.0576 413.52 40.927 413.911 39.8114 414.691C39.4821 414.919 39.1528 415.181 38.8267 415.481C38.3041 415.959 37.7934 416.525 37.3148 417.17C36.8362 417.814 36.4247 418.489 36.0822 419.175Z" fill="#F8B97B"/>
<path fill-rule="evenodd" clip-rule="evenodd" d="M61.3252 438.622V426.608C61.3252 425.851 61.8544 424.934 62.5111 424.556L71.7555 419.218C72.1322 417.605 72.6127 415.988 73.1945 414.381L66.6557 410.606C66.191 410.342 66.191 409.471 66.6557 408.671L74.0136 395.927C74.4783 395.122 75.2284 394.689 75.6931 394.957L82.2286 398.731C83.3303 397.431 84.4899 396.202 85.6981 395.07V384.395C85.6981 383.637 86.2313 382.714 86.884 382.337L97.292 376.328C97.9487 375.95 98.4779 376.259 98.4779 377.017V387.688C99.6861 387.425 100.846 387.31 101.95 387.341L108.482 376.026C108.947 375.221 109.7 374.786 110.162 375.056L117.519 379.304C117.984 379.569 117.984 380.439 117.519 381.24L110.99 392.548V392.552C111.568 393.493 112.052 394.556 112.429 395.734L121.664 390.403C122.321 390.023 122.853 390.327 122.853 391.085V403.099C122.853 403.857 122.32 404.78 121.664 405.158L112.432 410.488C112.056 412.105 111.572 413.727 110.993 415.336L117.519 419.104C117.984 419.372 117.984 420.239 117.519 421.043L110.162 433.787C109.7 434.59 108.947 435.025 108.482 434.757L101.957 430.985C100.852 432.294 99.6894 433.525 98.4779 434.659V445.318C98.4779 446.076 97.948 446.993 97.292 447.372L86.884 453.381C86.2306 453.758 85.6981 453.455 85.6981 452.697V442.033C84.4899 442.295 83.3303 442.406 82.226 442.372L75.6938 453.687C75.229 454.491 74.479 454.924 74.0142 454.656L66.6564 450.408C66.1916 450.14 66.1916 449.274 66.6564 448.469L73.1919 437.149C72.614 436.212 72.1296 435.152 71.7529 433.974L62.5111 439.31C61.8544 439.689 61.3252 439.38 61.3252 438.622ZM78.0343 417.175C77.4729 419.311 77.1673 421.441 77.1673 423.474C77.1673 425.508 77.4723 427.281 78.0317 428.767C78.1974 429.212 78.3893 429.63 78.6003 430.022C80.0715 432.761 82.5892 434.219 85.6978 434.127C86.1396 434.116 86.5938 434.071 87.0619 433.992L87.0651 433.99C88.6369 433.735 90.3263 433.113 92.0933 432.092C93.8544 431.076 95.5431 429.748 97.1122 428.193C97.5796 427.732 98.0345 427.252 98.4763 426.753C101.588 423.253 104.109 418.887 105.584 414.443C105.795 413.81 105.983 413.177 106.149 412.541C106.71 410.405 107.016 408.275 107.016 406.242C107.016 404.205 106.711 402.427 106.146 400.938C105.98 400.494 105.791 400.078 105.58 399.689C104.106 396.951 101.585 395.499 98.4763 395.595C98.0312 395.608 97.5763 395.649 97.1057 395.73C95.5398 395.988 93.8504 396.611 92.0933 397.626C90.3322 398.642 88.6402 399.972 87.0711 401.526C86.6004 401.989 86.1422 402.475 85.6972 402.976C82.5918 406.472 80.0774 410.827 78.6029 415.264C78.3919 415.9 78.2 416.535 78.0343 417.175Z" fill="#44AFFF"/>
<path d="M98.7923 418.734C102.499 412.314 102.499 405.376 98.7927 403.236C95.0866 401.096 89.0775 404.565 85.3711 410.985C81.6648 417.404 81.6646 424.343 85.3708 426.483C89.0769 428.622 95.086 425.153 98.7923 418.734Z" fill="#44AFFF"/>
<path d="M95.6922 416.944C97.6861 413.49 97.686 409.758 95.6921 408.606C93.6982 407.455 90.4654 409.321 88.4715 412.775C86.4777 416.228 86.4777 419.961 88.4717 421.112C90.4656 422.263 93.6983 420.397 95.6922 416.944Z" fill="#3054E5"/>
<path fill-rule="evenodd" clip-rule="evenodd" d="M39.7805 426.254C39.9916 426.498 40.244 426.669 40.5247 426.769C40.6995 426.832 40.8849 426.867 41.0782 426.876C41.7303 426.912 42.4797 426.653 43.2198 426.137C43.4387 425.987 43.657 425.809 43.8713 425.613C44.2177 425.296 44.5549 424.923 44.8718 424.496C45.1893 424.069 45.4614 423.622 45.6889 423.167L45.6909 423.164C45.8329 422.88 45.9558 422.595 46.0596 422.312C46.4172 421.353 46.5678 420.401 46.4896 419.593C46.4685 419.353 46.4264 419.125 46.3627 418.912C46.2615 418.57 46.1057 418.269 45.8946 418.025C45.6836 417.78 45.4325 417.611 45.1518 417.511C44.9783 417.449 44.7936 417.41 44.6003 417.402C43.9469 417.367 43.1975 417.626 42.458 418.144C42.2391 418.294 42.0215 418.469 41.8052 418.667C41.4588 418.984 41.1202 419.359 40.8027 419.787C40.4852 420.214 40.2131 420.661 39.9856 421.116C39.845 421.398 39.7194 421.684 39.6155 421.967C39.2593 422.927 39.1087 423.88 39.1856 424.69C39.2067 424.93 39.2514 425.157 39.3145 425.369C39.415 425.709 39.5695 426.009 39.7805 426.254Z" stroke="#0042FF" stroke-width="0.0253741"/>
<path d="M39.7805 426.254C39.9916 426.498 40.244 426.669 40.5247 426.769C40.6995 426.832 40.8849 426.867 41.0782 426.876C41.7303 426.912 42.4797 426.653 43.2198 426.137C43.4387 425.987 43.657 425.809 43.8713 425.613C44.2177 425.296 44.5549 424.923 44.8718 424.496C45.1893 424.069 45.4614 423.622 45.6889 423.167L45.6909 423.164C45.8329 422.88 45.9558 422.595 46.0596 422.312C46.4172 421.353 46.5678 420.401 46.4896 419.593C46.4685 419.353 46.4264 419.125 46.3627 418.912C46.2615 418.57 46.1057 418.269 45.8946 418.025C45.6836 417.78 45.4325 417.611 45.1518 417.511C44.9783 417.449 44.7936 417.41 44.6003 417.402C43.9469 417.367 43.1975 417.626 42.458 418.144C42.2391 418.294 42.0215 418.469 41.8052 418.667C41.4588 418.984 41.1202 419.359 40.8027 419.787C40.4852 420.214 40.2131 420.661 39.9856 421.116C39.845 421.398 39.7194 421.684 39.6155 421.967C39.2593 422.927 39.1087 423.88 39.1856 424.69C39.2067 424.93 39.2514 425.157 39.3145 425.369C39.415 425.709 39.5695 426.009 39.7805 426.254Z" fill="#44AFFF"/>
<path fill-rule="evenodd" clip-rule="evenodd" d="M40.2902 425.568C40.4664 425.772 40.6767 425.914 40.9101 425.998C41.056 426.051 41.2099 426.079 41.3716 426.087C41.9146 426.117 42.539 425.901 43.1563 425.471C43.3384 425.346 43.5205 425.197 43.6993 425.034C43.9879 424.77 44.2686 424.459 44.5335 424.103C44.7977 423.748 45.0252 423.374 45.2145 422.995L45.2158 422.993C45.3341 422.756 45.4367 422.519 45.5235 422.283C45.8212 421.484 45.9468 420.69 45.8817 420.017C45.864 419.817 45.8291 419.627 45.7759 419.449C45.6917 419.165 45.5616 418.914 45.3861 418.71C45.2099 418.506 45.0009 418.365 44.7668 418.281C44.6222 418.23 44.4684 418.198 44.3073 418.19C43.7624 418.162 43.1379 418.378 42.522 418.809C42.3399 418.935 42.1584 419.08 41.9777 419.245C41.6891 419.509 41.4064 419.822 41.1422 420.178C40.8779 420.533 40.6504 420.907 40.4611 421.285C40.3441 421.52 40.2396 421.758 40.1528 421.994C39.8557 422.795 39.7308 423.588 39.7946 424.264C39.8123 424.464 39.8498 424.653 39.9017 424.829C39.9852 425.114 40.114 425.364 40.2902 425.568Z" stroke="#0042FF" stroke-width="0.0211013"/>
<path d="M40.2902 425.568C40.4664 425.772 40.6767 425.914 40.9101 425.998C41.056 426.051 41.2099 426.079 41.3716 426.087C41.9146 426.117 42.539 425.901 43.1563 425.471C43.3384 425.346 43.5205 425.197 43.6993 425.034C43.9879 424.77 44.2686 424.459 44.5335 424.103C44.7977 423.748 45.0252 423.374 45.2145 422.995L45.2158 422.993C45.3341 422.756 45.4367 422.519 45.5235 422.283C45.8212 421.484 45.9468 420.69 45.8817 420.017C45.864 419.817 45.8291 419.627 45.7759 419.449C45.6917 419.165 45.5616 418.914 45.3861 418.71C45.2099 418.506 45.0009 418.365 44.7668 418.281C44.6222 418.23 44.4684 418.198 44.3073 418.19C43.7624 418.162 43.1379 418.378 42.522 418.809C42.3399 418.935 42.1584 419.08 41.9777 419.245C41.6891 419.509 41.4064 419.822 41.1422 420.178C40.8779 420.533 40.6504 420.907 40.4611 421.285C40.3441 421.52 40.2396 421.758 40.1528 421.994C39.8557 422.795 39.7308 423.588 39.7946 424.264C39.8123 424.464 39.8498 424.653 39.9017 424.829C39.9852 425.114 40.114 425.364 40.2902 425.568Z" fill="#3054E5"/>
<path fill-rule="evenodd" clip-rule="evenodd" d="M31.5974 440.245L29.2198 437.493C29.0883 437.342 29.1448 437 29.342 436.733L33.9712 430.502C33.7562 429.854 33.6228 429.138 33.5708 428.374L28.1167 430.259C27.8827 430.34 27.7308 430.165 27.7782 429.867L28.6216 424.528C28.6682 424.23 28.8957 423.925 29.1297 423.844L34.5838 421.959C34.8967 421.069 35.2852 420.172 35.7414 419.292L32.6597 415.726C32.5283 415.574 32.5802 415.234 32.7774 414.968L36.3495 410.16C36.5467 409.895 36.8142 409.805 36.9457 409.957L40.0274 413.523C40.696 412.89 41.3836 412.338 42.0712 411.881L43.1657 404.95C43.2123 404.652 43.4398 404.347 43.6738 404.266L47.8763 402.814C48.1103 402.733 48.2622 402.908 48.2148 403.205L47.121 410.13C47.7343 410.143 48.3154 410.253 48.8512 410.474L53.4803 404.243C53.6782 403.977 53.9464 403.882 54.0778 404.034L56.4555 406.785C56.587 406.938 56.5304 407.279 56.3332 407.545L51.7041 413.776C51.921 414.426 52.0525 415.14 52.109 415.903L57.5592 414.02C57.7932 413.939 57.9451 414.114 57.8978 414.411L57.0544 419.751C57.0077 420.048 56.7802 420.354 56.5462 420.435L51.0961 422.318C50.7785 423.21 50.3927 424.104 49.9338 424.987L53.0155 428.553C53.147 428.705 53.0951 429.045 52.8979 429.311L49.3258 434.118C49.1286 434.384 48.861 434.473 48.7296 434.322L45.6479 430.755C44.9767 431.393 44.2917 431.941 43.6035 432.403L42.5096 439.328C42.4629 439.626 42.2355 439.932 42.0015 440.012L37.799 441.464C37.565 441.545 37.4131 441.37 37.4604 441.073L38.5549 434.143C37.941 434.136 37.3579 434.023 36.8241 433.805L32.195 440.036C31.9971 440.302 31.7289 440.397 31.5974 440.245ZM39.3477 429.124C39.6113 429.219 39.8907 429.272 40.1825 429.284C41.1659 429.339 42.2966 428.949 43.4135 428.17C43.7428 427.943 44.0728 427.674 44.3962 427.379C44.9188 426.901 45.427 426.338 45.9055 425.694C46.3841 425.05 46.7956 424.374 47.1381 423.688L47.1407 423.685C47.355 423.256 47.5397 422.827 47.6968 422.4C48.2365 420.953 48.4633 419.517 48.345 418.296C48.3128 417.934 48.2497 417.59 48.1537 417.27C48.0012 416.754 47.7665 416.3 47.4477 415.931C47.1289 415.562 46.7502 415.307 46.3269 415.156C46.0646 415.062 45.7865 415.004 45.4947 414.991C44.5086 414.939 43.378 415.33 42.2624 416.111C41.9331 416.338 41.6038 416.601 41.2777 416.9C40.7551 417.379 40.2443 417.945 39.7658 418.589C39.2872 419.233 38.8757 419.908 38.5332 420.595C38.3216 421.019 38.1322 421.45 37.9751 421.878C37.4374 423.327 37.2106 424.764 37.3263 425.987C37.3585 426.349 37.4256 426.691 37.5202 427.01C37.6734 427.525 37.9061 427.977 38.2249 428.346C38.5437 428.715 38.9244 428.973 39.3477 429.124Z" fill="#FAC982"/>
<path d="M133.72 522.127L133.706 512.691L131.79 513.44C129.214 507.734 124.057 502.334 116.313 497.863C93.1021 484.462 55.4702 484.462 32.2588 497.863C24.7636 502.19 19.692 507.387 17.0376 512.89L14.8506 512.505V522.388L14.8558 522.387C14.9689 531.082 20.7675 539.757 32.2581 546.391C55.4689 559.792 93.1008 559.792 116.312 546.391C127.918 539.691 133.72 530.909 133.72 522.127Z" fill="#3054E5"/>
<path d="M74.2858 547.746C107.111 547.746 133.721 532.383 133.721 513.432C133.721 494.48 107.111 479.117 74.2858 479.117C41.4606 479.117 14.8506 494.48 14.8506 513.432C14.8506 532.383 41.4606 547.746 74.2858 547.746Z" fill="#44AFFF"/>
<path d="M124.809 513.432C124.809 513.432 124.809 513.43 124.809 513.43L124.808 508.211H123.987C122.218 502.568 117.566 497.167 110.011 492.804C90.28 481.413 58.2896 481.413 38.5583 492.804C30.9565 497.193 26.2965 502.633 24.5519 508.313L23.7598 508.211V513.78C23.7598 513.78 23.7696 513.778 23.7742 513.777C23.9248 521.126 28.8451 528.449 38.5583 534.057C58.2889 545.448 90.2794 545.448 110.011 534.057C119.776 528.419 124.7 521.048 124.799 513.658C124.803 513.658 124.809 513.658 124.809 513.658L124.809 513.432Z" fill="#DEE6FF"/>
<path d="M74.2858 537.573C102.189 537.573 124.81 524.513 124.81 508.403C124.81 492.292 102.189 479.232 74.2858 479.232C46.3821 479.232 23.7617 492.292 23.7617 508.403C23.7617 524.513 46.3821 537.573 74.2858 537.573Z" fill="#EAEFFF"/>
<path d="M114.15 515.314C112.235 519.005 108.756 522.478 103.711 525.39C87.4606 534.774 61.111 534.774 44.861 525.39C39.8158 522.478 36.3377 519.005 34.4215 515.314C30.1736 507.125 33.6517 497.886 44.861 491.415C61.111 482.031 87.4606 482.031 103.711 491.415C114.916 497.886 118.394 507.125 114.15 515.314Z" fill="#D0DBFF"/>
<path d="M114.151 515.313C112.235 519.005 108.757 522.481 103.709 525.393C87.461 534.772 61.1101 534.772 44.8621 525.393C39.8136 522.481 36.3368 519.005 34.4199 515.313C36.3309 511.621 39.8136 508.15 44.8621 505.233C61.1101 495.848 87.461 495.848 103.709 505.233C108.757 508.15 112.24 511.621 114.151 515.313Z" fill="#0F32BF"/>
<path d="M140.966 406.417L114.151 515.313C112.235 519.004 108.758 522.481 103.709 525.393C87.4611 534.772 61.1102 534.772 44.8622 525.393C39.8137 522.481 36.3369 519.004 34.42 515.313L0 402.138L140.966 406.417Z" fill="url(#paint8_linear)"/>
<path d="M245.818 228.59C245.327 228.59 244.849 228.335 244.587 227.879C244.196 227.2 244.43 226.333 245.109 225.941L280.22 205.716L245.06 185.392C244.622 185.138 244.352 184.67 244.352 184.163V163.093L225.919 131.12C225.527 130.441 225.76 129.573 226.439 129.182C227.116 128.79 227.985 129.023 228.377 129.703L246.999 162.005C247.124 162.22 247.189 162.465 247.189 162.713V183.344L283.77 204.49C284.209 204.744 284.479 205.212 284.478 205.72C284.478 206.226 284.207 206.695 283.768 206.948L246.525 228.401C246.302 228.529 246.059 228.59 245.818 228.59Z" fill="#4511AD"/>
<path d="M245.771 100.503C245.771 100.503 245.769 100.503 245.769 100.503C244.985 100.501 244.351 99.8645 244.353 99.0809L244.398 77.4952L226.44 67.1273C226.001 66.8735 225.73 66.4055 225.73 65.898C225.73 65.3905 226.001 64.9225 226.44 64.6688L263.685 43.1711C264.364 42.7773 265.231 43.012 265.624 43.6911C266.015 44.3701 265.782 45.2378 265.104 45.6296L229.987 65.898L246.527 75.4475C246.967 75.7019 247.238 76.1712 247.237 76.6794L247.19 99.0862C247.189 99.8697 246.554 100.503 245.771 100.503Z" fill="#4511AD"/>
<path d="M469.24 56.5787C468.456 56.5787 467.821 55.943 467.821 55.1594V34.5104L450.272 24.3404L413.371 24.3181C413.123 24.3181 412.878 24.2523 412.663 24.1281L376.168 3.05771L358.924 13.0128V33.7045C358.924 34.4881 358.289 35.1237 357.505 35.1237C356.722 35.1237 356.086 34.4881 356.086 33.7045V12.1944C356.086 11.6869 356.356 11.2188 356.795 10.9651L375.458 0.190306C375.895 -0.0634353 376.439 -0.0634353 376.877 0.190306L413.754 21.4809L450.656 21.5032C450.906 21.5032 451.151 21.569 451.366 21.6945L469.95 32.466C470.388 32.7198 470.658 33.1878 470.658 33.694V55.1607C470.659 55.9436 470.024 56.5787 469.24 56.5787Z" fill="#4511AD"/>
<path d="M487.863 110.37C487.618 110.37 487.373 110.307 487.154 110.18L449.908 88.6788C449.692 88.5539 449.513 88.3745 449.388 88.1589L430.767 55.9088C430.374 55.2304 430.608 54.362 431.287 53.9702C431.963 53.5778 432.831 53.8105 433.225 54.4902L451.658 86.4116L487.865 107.313L505.851 96.9728C506.529 96.581 507.396 96.8163 507.788 97.4954C508.179 98.1751 507.945 99.0428 507.264 99.4326L488.57 110.181C488.351 110.307 488.107 110.37 487.863 110.37Z" fill="#4511AD"/>
<path d="M543.731 228.591C542.947 228.591 542.312 227.956 542.312 227.172V206.494L524.399 196.189C523.959 195.935 523.687 195.466 523.688 194.957L523.723 173.465C523.725 172.682 524.36 172.048 525.143 172.048C525.144 172.048 525.144 172.048 525.145 172.048C525.928 172.049 526.563 172.685 526.561 173.469L526.528 194.139L544.439 204.443C544.878 204.696 545.149 205.164 545.149 205.672V227.172C545.15 227.956 544.515 228.591 543.731 228.591Z" fill="#4511AD"/>
<path d="M287.444 213.321C289.87 211.921 289.87 207.38 287.444 203.179C285.019 198.978 281.086 196.708 278.661 198.108C276.235 199.508 276.235 204.049 278.66 208.25C281.086 212.451 285.019 214.722 287.444 213.321Z" fill="#FBC97B"/>
<path d="M231.534 138.015C233.96 136.615 233.96 132.074 231.534 127.873C229.109 123.672 225.176 121.402 222.75 122.802C220.325 124.203 220.325 128.743 222.75 132.945C225.176 137.146 229.108 139.416 231.534 138.015Z" fill="#FBC97B"/>
<path d="M250.203 234.774C252.629 233.374 252.629 228.833 250.203 224.632C247.778 220.431 243.845 218.16 241.419 219.561C238.994 220.961 238.994 225.502 241.419 229.703C243.845 233.904 247.777 236.175 250.203 234.774Z" fill="#FBC97B"/>
<path d="M268.779 52.0088C271.205 50.6083 271.205 46.0674 268.779 41.8664C266.354 37.6654 262.421 35.3951 259.995 36.7955C257.57 38.196 257.57 42.7369 259.995 46.9379C262.421 51.139 266.354 53.4093 268.779 52.0088Z" fill="#FBC97B"/>
<path d="M250.157 106.69C252.583 105.289 252.583 100.748 250.157 96.5473C247.732 92.3463 243.799 90.076 241.373 91.4764C238.948 92.8769 238.948 97.4178 241.373 101.619C243.799 105.82 247.731 108.09 250.157 106.69Z" fill="#FBC97B"/>
<path d="M361.889 41.3123C364.315 39.9118 364.315 35.3709 361.89 31.1699C359.464 26.9688 355.531 24.6985 353.106 26.099C350.68 27.4995 350.68 32.0404 353.106 36.2414C355.531 40.4424 359.464 42.7127 361.889 41.3123Z" fill="#FBC97B"/>
<path d="M529.521 181.073C531.947 179.673 531.947 175.132 529.521 170.931C527.096 166.73 523.163 164.459 520.738 165.86C518.312 167.26 518.312 171.801 520.738 176.002C523.163 180.203 527.096 182.473 529.521 181.073Z" fill="#FBC97B"/>
<path d="M548.109 234.777C550.535 233.376 550.535 228.835 548.109 224.634C545.684 220.433 541.751 218.163 539.326 219.563C536.9 220.964 536.9 225.505 539.325 229.706C541.751 233.907 545.684 236.177 548.109 234.777Z" fill="#FBC97B"/>
<path d="M510.9 106.691C513.326 105.29 513.326 100.749 510.9 96.5483C508.475 92.3473 504.542 90.077 502.117 91.4774C499.691 92.8779 499.691 97.4188 502.116 101.62C504.542 105.821 508.475 108.091 510.9 106.691Z" fill="#FBC97B"/>
<path d="M436.378 62.8069C438.803 61.4064 438.803 56.8655 436.378 52.6645C433.952 48.4635 430.02 46.1932 427.594 47.5936C425.168 48.9941 425.168 53.535 427.594 57.736C430.02 61.9371 433.952 64.2074 436.378 62.8069Z" fill="#FBC97B"/>
<path d="M473.621 62.7676C476.047 61.3671 476.047 56.8262 473.621 52.6252C471.195 48.4242 467.263 46.1539 464.837 47.5543C462.412 48.9548 462.412 53.4957 464.837 57.6967C467.263 61.8978 471.195 64.1681 473.621 62.7676Z" fill="#FBC97B"/>
<path d="M432.036 656.132C452.584 656.132 469.242 646.515 469.242 634.652C469.242 622.789 452.584 613.171 432.036 613.171C411.488 613.171 394.831 622.789 394.831 634.652C394.831 646.515 411.488 656.132 432.036 656.132Z" fill="#F1F3FF"/>
<path d="M432.003 648.157C444.448 648.157 454.538 642.332 454.538 635.147C454.538 627.961 444.448 622.136 432.003 622.136C419.557 622.136 409.468 627.961 409.468 635.147C409.468 642.332 419.557 648.157 432.003 648.157Z" fill="#F8B97B"/>
<path d="M432.003 646.864C444.448 646.864 454.538 641.039 454.538 633.853C454.538 626.668 444.448 620.843 432.003 620.843C419.557 620.843 409.468 626.668 409.468 633.853C409.468 641.039 419.557 646.864 432.003 646.864Z" fill="#FAC982"/>
<path d="M452.957 618.977L450.836 635.67C450.828 635.684 450.828 635.699 450.821 635.714L450.784 635.816C450.053 637.865 448.312 639.81 445.569 641.397C440.917 644.082 434.479 645.106 428.474 644.455C428.467 644.455 428.467 644.455 428.467 644.455C424.795 644.06 421.284 643.043 418.438 641.397C415.688 639.81 413.954 637.864 413.223 635.816H413.216L411.043 618.977H452.957Z" fill="#44AFFF"/>
<path d="M452.957 618.977L450.836 635.67C450.829 635.684 450.829 635.698 450.822 635.714L450.785 635.816C450.053 637.864 448.312 639.81 445.569 641.397C440.917 644.082 434.48 645.106 428.475 644.455C428.826 644.359 440.383 641.185 442.007 635.142C443.163 630.848 443.199 623.182 443.119 618.977H452.957V618.977Z" fill="#4C69E5"/>
<path d="M457.206 616.015C457.206 616.014 457.206 616.012 457.206 616.011L457.205 610.893L455.492 610.74C454.264 608.913 452.379 607.199 449.824 605.724C439.981 600.042 424.024 600.042 414.181 605.724C411.604 607.212 409.709 608.943 408.481 610.788L406.8 610.638V616.52C406.8 616.52 406.812 616.521 406.821 616.522C407.034 620.074 409.484 623.59 414.182 626.302C424.025 631.985 439.982 631.984 449.825 626.302C454.513 623.595 456.963 620.087 457.184 616.542L457.206 616.55L457.206 616.015Z" fill="#E5EAFF"/>
<path d="M432.002 625.444C445.921 625.444 457.205 618.93 457.205 610.893C457.205 602.857 445.921 596.342 432.002 596.342C418.083 596.342 406.799 602.857 406.799 610.893C406.799 618.93 418.083 625.444 432.002 625.444Z" fill="#EEF2FF"/>
<path d="M451.542 613.82C450.672 615.766 448.916 617.609 446.275 619.138C438.397 623.688 425.61 623.688 417.725 619.138C415.085 617.609 413.322 615.766 412.451 613.82C410.725 609.95 412.481 605.672 417.725 602.65C425.611 598.101 438.397 598.101 446.275 602.65C451.52 605.672 453.275 609.95 451.542 613.82Z" fill="#E5EAFF"/>
<path d="M451.542 613.82C450.671 615.766 448.916 617.609 446.275 619.138C438.397 623.688 425.61 623.688 417.725 619.138C415.085 617.609 413.322 615.766 412.451 613.82C413.322 611.875 415.085 610.031 417.725 608.502C425.611 603.953 438.397 603.953 446.275 608.502C448.916 610.031 450.671 611.875 451.542 613.82Z" fill="#F6E9F5"/>
<path d="M429.496 573.976L439.051 572.083C439.558 569.082 439.982 565.942 440.25 562.744L434.173 560.147L440.455 559.611C440.644 555.825 440.584 552.019 440.177 548.339L435.298 547.071L439.651 544.661C438.717 539.591 436.998 534.893 434.173 531.019C434.173 531.019 427.353 535.713 422.689 545.404L424.904 547.071H421.932C420.484 550.448 419.335 554.373 418.787 558.854L423.722 560.295L418.591 560.721C418.193 565.638 418.548 571.192 420.008 577.383L423.723 578.024L420.426 579.103C421.624 583.632 423.407 588.488 425.939 593.688L433.193 594.99C433.193 594.99 436.243 586.659 438.42 575.572L429.496 573.976Z" fill="#FB9C6D"/>
<path d="M426.606 614.406C426.606 614.406 431.545 609.127 436.492 614.406C436.493 614.406 432.198 619.402 426.606 614.406Z" fill="#E9D2D1"/>
<path d="M433.967 613.674C433.945 613.765 433.756 614.421 432.791 614.723C432.617 614.775 432.413 614.821 432.18 614.844C432.135 614.851 432.097 614.859 432.052 614.859H432.045C431.743 614.881 431.471 614.866 431.223 614.814C431.012 614.783 430.823 614.723 430.65 614.648C430.529 614.603 430.416 614.542 430.311 614.482C429.768 614.165 429.496 613.766 429.496 613.766C429.7 613.833 429.903 613.887 430.107 613.931C430.272 613.969 430.439 613.999 430.597 614.022C430.876 614.06 431.147 614.083 431.404 614.09C431.532 614.09 431.653 614.09 431.766 614.083C431.879 614.083 431.992 614.075 432.105 614.067C432.429 614.045 432.724 614 432.972 613.946C433.538 613.841 433.899 613.697 433.967 613.674Z" fill="#F6E9F5"/>
<path d="M442.256 588.137L446.41 588.502C447.596 585.675 448.895 582.279 450.025 578.622L443.985 574.57L450.861 575.725C451.628 572.895 452.25 569.977 452.615 567.098L448.761 565.137H452.82C453.193 560.671 452.862 556.391 451.339 552.833C451.339 552.833 447.236 555.209 443.133 560.095L443.985 562.497L442.03 561.473C440.177 563.903 438.403 566.858 437.09 570.348L439.084 572.93L436.539 571.931C435.659 574.681 435.078 577.738 434.955 581.105L436.505 582.105H434.932C434.901 585.599 435.36 589.414 436.495 593.563L442.792 596.308C442.792 596.308 444.075 593.892 445.727 590.106L442.256 588.137Z" fill="#FBC97B"/>
<path d="M419.928 579.083L421.893 576.14C420.755 572.13 419.319 568.64 417.757 565.648L414.646 567.078L417.006 564.268C415.301 561.233 413.497 558.749 411.815 556.767L409.487 558.154L410.399 555.177C407.325 551.898 404.963 550.427 404.963 550.427C405.058 554.588 405.406 558.437 405.931 561.997L409.487 561.736L406.158 563.434C406.597 566.099 407.133 568.598 407.746 570.921L413.801 571.132L408.386 573.209C409.338 576.412 410.422 579.25 411.542 581.759L416.534 580.651L412.814 584.442C416.892 592.532 421.027 596.307 421.027 596.307L424.331 592.089C424.147 587.043 423.483 582.536 422.513 578.507L419.928 579.083Z" fill="#FCCB82"/>
<path d="M431.765 614.082C431.268 614.104 430.702 614.067 430.106 613.931C423.251 595.063 415.393 573.126 415.084 572.289C415.423 573.088 424.789 595.085 431.765 614.082Z" fill="#002D99"/>
<path d="M432.105 614.067C431.992 614.074 431.879 614.082 431.766 614.082C431.404 614.097 431.012 614.082 430.597 614.022C428.818 594.18 429.405 571.489 429.405 571.489C429.413 571.723 430.22 594.241 432.105 614.067Z" fill="#002D99"/>
<path d="M443.032 571.014C442.534 573.465 436.539 599.271 432.972 613.946C432.723 613.998 432.429 614.044 432.105 614.067C431.992 614.074 431.879 614.082 431.766 614.082C431.652 614.089 431.532 614.089 431.403 614.089C435.046 599.647 442.504 572.876 443.032 571.014Z" fill="#002D99"/>
<path opacity="0.7" d="M193.521 264.537L111.847 311.691C108.396 313.683 105.599 311.569 105.599 306.967V223.23C105.599 218.628 108.396 213.283 111.847 211.291L193.521 164.137C196.972 162.144 199.769 164.259 199.769 168.86V252.598C199.769 257.199 196.971 262.544 193.521 264.537Z" fill="#44AFFF"/>
<path d="M175.249 190.62V259.12L130.118 285.176V227.741L140.151 210.884L175.249 190.62Z" fill="#FBC97B"/>
<path d="M140.151 210.884V221.949L130.118 227.741L140.151 210.884Z" fill="#F9BA7B"/>
<path opacity="0.48" d="M170.742 227.852L144.654 242.914C144.23 243.159 143.887 243.754 143.887 244.243V248.258C143.887 248.748 144.231 248.946 144.654 248.701L170.742 233.639C171.166 233.395 171.509 232.799 171.509 232.31V228.295C171.509 227.805 171.165 227.607 170.742 227.852Z" fill="#84B2B8"/>
<g opacity="0.7">
<path d="M171.51 199.996L143.886 215.944C143.622 216.096 143.408 215.973 143.408 215.668C143.408 215.363 143.622 214.992 143.886 214.839L171.51 198.891C171.774 198.739 171.988 198.862 171.988 199.167C171.988 199.472 171.774 199.843 171.51 199.996Z" fill="#44AFFF"/>
</g>
<g opacity="0.7">
<path d="M171.51 205.588L143.886 221.537C143.622 221.689 143.408 221.566 143.408 221.261C143.408 220.956 143.622 220.585 143.886 220.432L171.51 204.484C171.774 204.332 171.988 204.455 171.988 204.76C171.988 205.066 171.774 205.436 171.51 205.588Z" fill="#44AFFF"/>
</g>
<g opacity="0.7">
<path d="M171.51 211.275L133.858 233.013C133.549 233.191 133.299 233.046 133.299 232.69C133.299 232.334 133.549 231.901 133.858 231.722L171.51 209.984C171.818 209.806 172.069 209.951 172.069 210.307C172.069 210.663 171.818 211.096 171.51 211.275Z" fill="#44AFFF"/>
</g>
<g opacity="0.7">
<path d="M171.51 216.867L133.858 238.606C133.549 238.784 133.299 238.639 133.299 238.283C133.299 237.927 133.549 237.493 133.858 237.315L171.51 215.577C171.818 215.399 172.069 215.543 172.069 215.9C172.069 216.256 171.818 216.689 171.51 216.867Z" fill="#44AFFF"/>
</g>
<g opacity="0.7">
<path d="M171.51 222.46L133.858 244.198C133.549 244.377 133.299 244.232 133.299 243.876C133.299 243.52 133.549 243.086 133.858 242.908L171.51 221.17C171.818 220.992 172.069 221.136 172.069 221.493C172.069 221.849 171.818 222.283 171.51 222.46Z" fill="#44AFFF"/>
</g>
<g opacity="0.7">
<path d="M171.51 239.435L133.858 261.173C133.549 261.351 133.299 261.206 133.299 260.85C133.299 260.494 133.549 260.061 133.858 259.882L171.51 238.144C171.818 237.966 172.069 238.111 172.069 238.467C172.069 238.823 171.818 239.256 171.51 239.435Z" fill="#44AFFF"/>
</g>
<g opacity="0.7">
<path d="M171.51 245.027L133.858 266.765C133.549 266.943 133.299 266.799 133.299 266.442C133.299 266.086 133.549 265.653 133.858 265.475L171.51 243.736C171.818 243.558 172.069 243.703 172.069 244.059C172.069 244.415 171.818 244.849 171.51 245.027Z" fill="#44AFFF"/>
</g>
<g opacity="0.7">
<path d="M171.51 250.62L133.858 272.359C133.549 272.537 133.299 272.392 133.299 272.036C133.299 271.68 133.549 271.246 133.858 271.068L171.51 249.33C171.818 249.152 172.069 249.296 172.069 249.653C172.069 250.009 171.818 250.442 171.51 250.62Z" fill="#44AFFF"/>
</g>
<path d="M233.24 598.69C233.24 598.69 238.347 603.924 239.226 604.588C240.105 605.253 242.02 605.165 242.02 605.564C242.02 605.963 240.601 609.112 237.63 608.934C234.659 608.757 232.087 609.289 231.289 609.866C230.49 610.442 227.691 611.765 225.612 610.985C224.992 610.752 224.77 610.442 224.77 610.442L226.055 599.312L233.24 598.69Z" fill="#1E3377"/>
<path d="M176.797 589.403C176.797 589.403 180.522 593.394 183.626 593.66C186.73 593.926 186.813 594.015 186.418 595.345C186.022 596.675 181.41 599.957 179.724 599.336C178.039 598.715 174.403 601.996 172.363 601.464C170.323 600.932 169.525 599.841 169.525 599.841L171.388 588.25L176.797 589.403Z" fill="#1E3377"/>
<path d="M210.314 445.406C210.314 445.406 209.131 459.95 213.743 467.046C213.743 467.046 220.956 519.313 221.43 523.57C221.903 527.827 224.593 600.109 224.593 600.109C224.593 600.109 226.544 601.741 230.18 601.499C232.832 601.322 233.904 599.625 233.904 599.625L237.275 512.928L232.131 444.282L210.314 445.406Z" fill="#4511AD"/>
<path d="M157.336 427.314C157.336 427.314 157.809 439.848 159.464 449.781C161.12 459.715 168.215 505.36 168.215 506.306C168.215 507.252 169.161 590.738 169.161 590.738C169.161 590.738 175.073 592.157 177.675 589.319C177.675 589.319 183.115 513.282 183.824 509.203C184.534 505.123 186.882 471.776 186.882 471.776L179.804 425.184L157.336 427.314Z" fill="#4511AD"/>
<path d="M246.41 603.214C246.41 603.214 250.136 609.954 252.619 611.019C255.102 612.083 256.255 611.728 256.299 611.994C256.343 612.26 256.876 613.191 254.703 614.566C252.53 615.941 245.923 618.823 244.992 618.912C244.06 619.001 240.38 619.311 239.848 618.247C239.316 617.183 240.247 602.948 240.247 602.948L246.41 603.214Z" fill="#1E3377"/>
<path d="M200.558 596.473C200.558 596.473 204.283 600.464 207.387 600.73C210.491 600.997 210.574 601.085 210.178 602.415C209.782 603.746 205.171 607.027 203.485 606.406C201.8 605.785 198.164 609.067 196.124 608.534C194.084 608.002 193.286 606.911 193.286 606.911L195.148 595.32L200.558 596.473Z" fill="#1E3377"/>
<path d="M262.581 449.781C262.581 449.781 259.033 464.681 258.797 466.337C258.56 467.992 252.411 540.363 251.702 546.748C250.993 553.134 246.736 604.219 246.736 604.219C246.736 604.219 245.435 606.229 242.952 606.821C240.469 607.412 237.394 604.929 237.394 604.929C237.394 604.929 237.512 537.88 237.394 533.031C237.276 528.183 230.063 471.777 229.708 470.712C229.353 469.648 219.302 460.425 218.71 449.782H262.581V449.781Z" fill="#4511AD"/>
<path d="M207.003 430.388C207.003 430.388 204.874 509.144 204.992 514.111C205.111 519.077 201.445 597.952 201.445 597.952C201.445 597.952 198.843 599.252 197.424 599.252C196.006 599.252 193.167 597.361 193.167 597.361C193.167 597.361 190.448 517.422 189.974 514.82C189.501 512.219 171.764 451.91 171.29 450.965C170.817 450.019 166.324 438.903 166.796 433.7C167.27 428.496 207.003 430.388 207.003 430.388Z" fill="#4511AD"/>
<path d="M172.177 336.437C172.177 336.437 164.313 347.316 163.959 347.966C163.604 348.616 150.094 388.497 149.65 390.182C149.206 391.867 153.996 415.458 153.996 415.458L170.226 399.583L172.177 336.437Z" fill="#7F3FFF"/>
<path d="M249.469 351.43L248.575 353.331L247.085 356.482C247.085 356.482 246.049 356.396 245.482 357.191C244.9 357.986 244.063 359.632 244.063 359.632L242.772 359.206L236.968 357.276L239.891 349.613L249.469 351.43Z" fill="#F9CBDF"/>
<path d="M248.575 353.331L247.085 356.481C247.085 356.481 246.049 356.396 245.482 357.191C244.9 357.985 244.063 359.631 244.063 359.631L242.771 359.205C243.396 358.794 244.247 358.127 244.701 357.262C245.482 355.8 244.701 353.331 244.701 353.331H248.575V353.331Z" fill="#F2AEBF"/>
<path d="M240.202 357.456C244.513 358.856 247.475 360.382 246.766 364.418L231.467 360.293C231.467 360.294 231.467 354.618 240.202 357.456Z" fill="#FBC97B"/>
<path d="M270.088 449.598C270.088 449.598 238.87 469.464 202.685 443.042C202.685 443.042 203.139 440.161 203.863 435.521C205.565 424.637 208.772 404.075 211.256 388.253C211.44 387.103 211.611 385.969 211.781 384.875C212.561 379.895 213.242 375.538 213.753 372.359C214.165 369.734 214.449 367.889 214.576 367.123C215.513 361.205 221.785 358.012 224.268 358.495C226.752 358.963 239.722 361.404 239.722 361.404C243.17 362.326 255.018 365.703 258.467 366.583C258.637 366.626 258.807 366.71 258.992 366.839C260.113 367.562 261.447 369.719 262.738 372.742C262.753 372.784 262.781 372.827 262.795 372.884C265.533 379.383 268.003 389.798 267.435 398.512C267.08 403.847 266.754 411.652 266.754 419.641V419.669C266.754 431.888 267.52 444.56 270.088 449.598Z" fill="#7F3FFF"/>
<path d="M267.435 398.513C267.08 403.849 266.754 411.653 266.754 419.643L265.264 393.732L262.741 395.497C254.681 394.205 250.719 384.806 250.719 384.806L252.365 373.127L262.794 372.886C265.534 379.385 268.003 389.801 267.435 398.513Z" fill="#7F3FFF"/>
<path d="M302.551 329.459C302.551 329.459 302.019 325.912 301.723 324.847C301.428 323.783 302.138 321.714 302.138 321.714L303.734 321.3C303.734 321.3 307.932 313.731 308.582 314.086C309.232 314.441 307.696 319.23 307.873 319.467C308.051 319.703 311.539 321.004 311.953 322.009C312.366 323.015 312.367 325.202 312.367 325.498C312.367 325.794 308.878 332.061 308.878 332.061L302.551 329.459Z" fill="#F9CBDF"/>
<path d="M310.767 333.01C310.767 333.01 296.406 374.105 296.052 375.169C295.697 376.233 262.577 393.73 262.577 393.73C262.577 393.73 253.595 390.651 252.53 382.136C251.126 370.883 258.987 366.839 258.987 366.839C258.987 366.839 262.095 366.243 266.21 365.435C268.254 365.038 270.553 364.597 272.837 364.129C279.194 362.852 285.494 361.546 286.119 361.206C287.41 360.497 300.536 329.108 300.536 329.108C300.536 329.108 307.064 328.37 307.759 329.108C308.169 329.547 310.767 333.01 310.767 333.01Z" fill="#7F3FFF"/>
<path d="M203.706 335.324V339.212C203.706 339.212 202.642 339.936 202.245 341.269C201.947 342.249 201.379 343.951 201.095 344.774C200.996 345.072 200.939 345.257 200.939 345.257L192.312 340.914L197.008 333.422L203.706 335.324Z" fill="#F9CBDF"/>
<path d="M203.706 336.502V339.212C203.706 339.212 202.642 339.936 202.245 341.27C201.947 342.249 201.379 343.952 201.095 344.775C200.187 344.236 199.151 343.484 199.151 343.484C199.151 343.484 201.72 341.582 202.174 340.078C202.614 338.574 201.933 337.353 201.933 337.353L203.706 336.502Z" fill="#F2AEBF"/>
<path d="M189.501 342.349L192.309 338.624C192.309 338.624 199.139 340.782 202.686 345.26L202.39 347.433L189.501 342.349Z" fill="#4511AD"/>
<path d="M270.088 364.683C270.088 364.683 266.782 368.33 262.738 372.743C256.607 379.484 248.788 388.04 248.462 388.225C248.036 388.466 222.892 385.982 211.78 384.876C212.561 379.895 213.242 375.539 213.752 372.36L246.873 378.334L258.991 366.84L270.088 364.683Z" fill="#7F3FFF"/>
<path d="M211.256 388.254C208.772 404.076 205.566 424.638 203.862 435.522C200.925 436.033 197.732 436.558 194.539 437.097C185.372 438.587 176.134 439.949 172.53 440.02C164.371 440.205 151.429 426.185 151.429 426.185C151.429 426.185 164.2 351.133 165.264 347.954C166.328 344.775 171.465 336.431 172.175 336.431C172.885 336.431 195.234 342.76 195.234 342.76C199.605 344.591 209.892 350.04 210.545 350.452C210.673 350.523 210.758 352.395 210.829 355.39C211.001 362.74 211.057 376.929 211.256 388.254Z" fill="#925EFF"/>
<path d="M211.256 388.254C208.772 404.076 205.565 424.638 203.862 435.522C200.925 436.033 197.732 436.558 194.539 437.097L194.524 437.082C203.734 431.037 209.495 383.301 209.495 383.301L199.86 380.818C194.524 360.539 206.573 353.331 206.573 353.331L210.83 355.388C211 362.74 211.057 376.929 211.256 388.254Z" fill="#7F3FFF"/>
<path d="M272.836 364.129C270.552 364.597 268.253 365.038 266.209 365.435C266.067 364.328 265.741 361.844 265.741 361.844C265.741 361.844 269.204 361.489 269.559 361.631C269.913 361.759 272.525 362.908 272.525 362.908L272.836 364.129Z" fill="#F9CBDF"/>
<path d="M210.551 350.449C210.551 350.449 244.936 367.833 246.871 368.187C248.805 368.541 265.39 361.254 265.39 361.254C265.39 361.254 268.849 363.132 269.292 363.664C269.736 364.196 270.091 364.683 270.091 364.683C270.091 364.683 248.983 383.264 247.563 384.24C246.144 385.215 201.534 379.273 201.534 379.273C201.534 379.273 194.114 360.028 210.551 350.449Z" fill="#925EFF"/>
<path d="M286.118 361.206L293.25 364.418C293.251 364.418 289.54 359.509 286.118 361.206Z" fill="#7F3FFF"/>
<path d="M246.87 368.187L247.841 377.359C247.841 377.359 250.244 367.796 246.87 368.187Z" fill="#7F3FFF"/>
<path d="M206.012 322.867C206.012 322.867 206.721 328.366 206.943 330.982C207.165 333.599 208.082 338.131 206.012 338.965C202.597 340.339 201.444 337.058 201.444 337.058L195.547 336.171L194.526 322.602C194.527 322.601 205.48 320.561 206.012 322.867Z" fill="#F9CBDF"/>
<path d="M201.135 332.756C201.135 332.756 200.558 329.999 199.006 330.535C197.454 331.071 197.676 336.038 201.356 336.259L201.445 337.057L200.932 337.944H193.685L193.907 337.146C193.907 337.146 182.59 333.759 188.26 321.241C192.813 311.189 201.445 316.807 201.445 316.807C201.445 316.807 206.176 310.717 208.186 311.899C210.196 313.082 210.314 322.542 205.466 324.197C200.618 325.853 202.155 331.884 202.155 331.884L201.135 332.756Z" fill="#4511AD"/>
<path d="M252.53 342.645C252.53 342.645 252.308 347.611 252.086 351.292C251.864 354.972 250.763 356.458 248.627 356.657C244.814 357.012 243.882 351.912 243.882 351.912L238.028 351.424L240.378 339.23C240.379 339.23 252.441 339.762 252.53 342.645Z" fill="#F9CBDF"/>
<path d="M244.327 349.607C244.327 349.607 244.327 347.522 242.73 347.079C241.134 346.636 240.957 351.026 243.883 351.913L241.356 353.332C241.356 353.332 238.695 352.888 237.498 353.332C237.498 353.332 233.728 342.379 233.418 341.536C233.108 340.694 242.082 329.827 248.406 330.361C257.32 331.115 254.693 342.163 253.55 343.709L253.018 343.31C253.018 343.31 250.446 346.148 247.519 346.015C244.592 345.882 245.279 349.297 245.279 349.297L244.327 349.607Z" fill="#4511AD"/>
<defs>
<linearGradient id="paint0_linear" x1="257.128" y1="563.753" x2="369.938" y2="563.753" gradientUnits="userSpaceOnUse">
<stop stop-color="#5C7EFF" stop-opacity="0.01"/>
<stop offset="1" stop-color="#5C7EFF"/>
</linearGradient>
<linearGradient id="paint1_linear" x1="269.974" y1="551.828" x2="342.586" y2="551.828" gradientUnits="userSpaceOnUse">
<stop stop-color="#5C7EFF" stop-opacity="0.01"/>
<stop offset="1" stop-color="#5C7EFF"/>
</linearGradient>
<linearGradient id="paint2_linear" x1="329.901" y1="556.255" x2="383.995" y2="556.255" gradientUnits="userSpaceOnUse">
<stop stop-color="#5C7EFF" stop-opacity="0.01"/>
<stop offset="1" stop-color="#5C7EFF"/>
</linearGradient>
<linearGradient id="paint3_linear" x1="308.869" y1="563.824" x2="358.179" y2="563.824" gradientUnits="userSpaceOnUse">
<stop stop-color="#5C7EFF" stop-opacity="0.01"/>
<stop offset="1" stop-color="#5C7EFF"/>
</linearGradient>
<linearGradient id="paint4_linear" x1="262.2" y1="542.793" x2="334.67" y2="542.793" gradientUnits="userSpaceOnUse">
<stop stop-color="#5C7EFF" stop-opacity="0.01"/>
<stop offset="1" stop-color="#5C7EFF"/>
</linearGradient>
<linearGradient id="paint5_linear" x1="262.354" y1="518.818" x2="324.222" y2="518.818" gradientUnits="userSpaceOnUse">
<stop stop-color="#5C7EFF" stop-opacity="0.01"/>
<stop offset="1" stop-color="#5C7EFF"/>
</linearGradient>
<linearGradient id="paint6_linear" x1="280.254" y1="556.146" x2="327.63" y2="556.146" gradientUnits="userSpaceOnUse">
<stop stop-color="#5C7EFF" stop-opacity="0.01"/>
<stop offset="1" stop-color="#5C7EFF"/>
</linearGradient>
<linearGradient id="paint7_linear" x1="293.42" y1="560.805" x2="308.645" y2="560.805" gradientUnits="userSpaceOnUse">
<stop stop-color="#5C7EFF" stop-opacity="0.01"/>
<stop offset="1" stop-color="#5C7EFF"/>
</linearGradient>
<linearGradient id="paint8_linear" x1="6.72176e-05" y1="402.137" x2="6.72176e-05" y2="532.427" gradientUnits="userSpaceOnUse">
<stop stop-color="#5C7EFF" stop-opacity="0.01"/>
<stop offset="1" stop-color="#5C7EFF"/>
</linearGradient>
</defs>
</svg>
