<svg width="275" height="275" viewBox="0 0 275 275" fill="none" xmlns="http://www.w3.org/2000/svg">
<g opacity="0.15">
<circle cx="137.326" cy="137.326" r="137.326" fill="white"/>
<g clip-path="url(#clip0)">
<path d="M203.707 98.9632C203.518 94.803 203.518 90.832 203.518 86.8609C203.518 83.6462 201.06 81.1879 197.845 81.1879C174.208 81.1879 156.243 74.3804 141.305 59.8198C139.036 57.7397 135.632 57.7397 133.363 59.8198C118.424 74.3804 100.459 81.1879 76.8222 81.1879C73.6075 81.1879 71.1492 83.6462 71.1492 86.8609C71.1492 90.832 71.1492 94.803 70.9601 98.9632C70.2037 138.674 69.0691 193.134 135.443 216.015L137.334 216.393L139.225 216.015C205.409 193.134 204.464 138.863 203.707 98.9632ZM132.795 153.991C131.661 154.936 130.337 155.504 128.824 155.504H128.635C127.122 155.504 125.61 154.747 124.664 153.613L107.078 134.135L115.587 126.572L129.392 141.888L160.025 112.767L167.778 121.088L132.795 153.991Z" fill="#79B44C"/>
</g>
</g>
<defs>
<clipPath id="clip0">
<rect width="158.133" height="158.133" fill="white" transform="translate(58.2617 58.2598)"/>
</clipPath>
</defs>
</svg>
