<svg width="65" height="65" viewBox="0 0 65 65" fill="none" xmlns="http://www.w3.org/2000/svg">
<path fill-rule="evenodd" clip-rule="evenodd" d="M32.5 65C50.4493 65 65 50.4493 65 32.5C65 14.5507 50.4493 0 32.5 0C14.5507 0 0 14.5507 0 32.5C0 50.4493 14.5507 65 32.5 65Z" fill="#DCF0FF"/>
<circle cx="32.5" cy="32.5" r="24.5" fill="#A8D6F9"/>
<path d="M44.3428 25.6558C44.309 24.9136 44.309 24.2052 44.309 23.4967C44.309 22.9232 43.8705 22.4846 43.297 22.4846C39.0799 22.4846 35.8749 21.2701 33.2097 18.6724C32.8049 18.3013 32.1976 18.3013 31.7928 18.6724C29.1276 21.2701 25.9227 22.4846 21.7056 22.4846C21.1321 22.4846 20.6935 22.9232 20.6935 23.4967C20.6935 24.2052 20.6935 24.9136 20.6598 25.6558C20.5248 32.7405 20.3224 42.4566 32.1639 46.5387L32.5013 46.6062L32.8386 46.5387C44.6464 42.4566 44.4777 32.7742 44.3428 25.6558ZM31.6916 35.4731C31.4892 35.6418 31.253 35.743 30.9831 35.743H30.9494C30.6795 35.743 30.4096 35.6081 30.2409 35.4057L27.1034 31.9308L28.6216 30.5813L31.0843 33.314L36.5497 28.1186L37.9328 29.603L31.6916 35.4731Z" fill="#44AFFF"/>
</svg>
