<svg width="235" height="40" viewBox="0 0 235 40" fill="none" xmlns="http://www.w3.org/2000/svg">
<circle cx="19.1019" cy="20.4353" r="19.1019" fill="white"/>
<g clip-path="url(#clip0)">
<path d="M28.3347 15.0989C28.3084 14.5202 28.3084 13.9679 28.3084 13.4155C28.3084 12.9683 27.9664 12.6264 27.5193 12.6264C24.2314 12.6264 21.7326 11.6795 19.6546 9.65414C19.339 9.3648 18.8655 9.3648 18.5499 9.65414C16.4719 11.6795 13.9731 12.6264 10.6852 12.6264C10.238 12.6264 9.89607 12.9683 9.89607 13.4155C9.89607 13.9679 9.89607 14.5202 9.86977 15.0989C9.76456 20.6226 9.60674 28.1979 18.8392 31.3806L19.1022 31.4333L19.3653 31.3806C28.5714 28.1979 28.4399 20.6489 28.3347 15.0989ZM18.4709 22.7532C18.3131 22.8847 18.129 22.9636 17.9186 22.9636H17.8923C17.6818 22.9636 17.4714 22.8584 17.3399 22.7006L14.8937 19.9913L16.0773 18.9392L17.9975 21.0698L22.2586 17.0191L23.3371 18.1764L18.4709 22.7532Z" fill="#79B44C"/>
</g>
<path d="M56.1677 27.128H62.7383V31H51.1517V10.408H56.1677V27.128ZM74.6028 31.2053C72.6668 31.2053 70.8873 30.7556 69.2642 29.856C67.6606 28.9564 66.3797 27.7049 65.4215 26.1013C64.4828 24.4782 64.0135 22.6596 64.0135 20.6453C64.0135 18.6311 64.4828 16.8222 65.4215 15.2187C66.3797 13.6151 67.6606 12.3636 69.2642 11.464C70.8873 10.5644 72.6668 10.1147 74.6028 10.1147C76.5388 10.1147 78.3086 10.5644 79.9122 11.464C81.5353 12.3636 82.8064 13.6151 83.7255 15.2187C84.6642 16.8222 85.1335 18.6311 85.1335 20.6453C85.1335 22.6596 84.6642 24.4782 83.7255 26.1013C82.7868 27.7049 81.5157 28.9564 79.9122 29.856C78.3086 30.7556 76.5388 31.2053 74.6028 31.2053ZM74.6028 26.6293C76.2455 26.6293 77.5557 26.0818 78.5335 24.9867C79.5308 23.8916 80.0295 22.4444 80.0295 20.6453C80.0295 18.8267 79.5308 17.3796 78.5335 16.304C77.5557 15.2089 76.2455 14.6613 74.6028 14.6613C72.9406 14.6613 71.6108 15.1991 70.6135 16.2747C69.6357 17.3502 69.1468 18.8071 69.1468 20.6453C69.1468 22.464 69.6357 23.9209 70.6135 25.016C71.6108 26.0916 72.9406 26.6293 74.6028 26.6293ZM101.327 16.92C100.955 16.2356 100.417 15.7173 99.7134 15.3653C99.029 14.9938 98.2174 14.808 97.2787 14.808C95.6556 14.808 94.3552 15.3458 93.3774 16.4213C92.3996 17.4773 91.9107 18.8951 91.9107 20.6747C91.9107 22.5716 92.4192 24.0578 93.4361 25.1333C94.4725 26.1893 95.8903 26.7173 97.6894 26.7173C98.9214 26.7173 99.9579 26.4044 100.799 25.7787C101.659 25.1529 102.285 24.2533 102.676 23.08H96.3107V19.384H107.223V24.048C106.851 25.2996 106.216 26.4631 105.316 27.5387C104.436 28.6142 103.312 29.4844 101.943 30.1493C100.574 30.8142 99.029 31.1467 97.3081 31.1467C95.2743 31.1467 93.4556 30.7067 91.8521 29.8267C90.2681 28.9271 89.0263 27.6853 88.1267 26.1013C87.2467 24.5173 86.8067 22.7084 86.8067 20.6747C86.8067 18.6409 87.2467 16.832 88.1267 15.248C89.0263 13.6444 90.2681 12.4027 91.8521 11.5227C93.4361 10.6231 95.245 10.1733 97.2787 10.1733C99.7427 10.1733 101.816 10.7698 103.497 11.9627C105.199 13.1556 106.323 14.808 106.871 16.92H101.327ZM114.75 10.408V31H109.734V10.408H114.75ZM117.268 20.6747C117.268 18.6409 117.708 16.832 118.588 15.248C119.468 13.6444 120.69 12.4027 122.255 11.5227C123.839 10.6231 125.628 10.1733 127.623 10.1733C130.067 10.1733 132.16 10.8187 133.9 12.1093C135.641 13.4 136.804 15.16 137.391 17.3893H131.876C131.466 16.5289 130.879 15.8738 130.116 15.424C129.373 14.9742 128.522 14.7493 127.564 14.7493C126.019 14.7493 124.768 15.2871 123.81 16.3627C122.851 17.4382 122.372 18.8756 122.372 20.6747C122.372 22.4738 122.851 23.9111 123.81 24.9867C124.768 26.0622 126.019 26.6 127.564 26.6C128.522 26.6 129.373 26.3751 130.116 25.9253C130.879 25.4756 131.466 24.8204 131.876 23.96H137.391C136.804 26.1893 135.641 27.9493 133.9 29.24C132.16 30.5111 130.067 31.1467 127.623 31.1467C125.628 31.1467 123.839 30.7067 122.255 29.8267C120.69 28.9271 119.468 27.6853 118.588 26.1013C117.708 24.5173 117.268 22.7084 117.268 20.6747ZM151.161 27.128H157.732V31H146.145V10.408H151.161V27.128ZM169.597 31.2053C167.661 31.2053 165.881 30.7556 164.258 29.856C162.654 28.9564 161.373 27.7049 160.415 26.1013C159.477 24.4782 159.007 22.6596 159.007 20.6453C159.007 18.6311 159.477 16.8222 160.415 15.2187C161.373 13.6151 162.654 12.3636 164.258 11.464C165.881 10.5644 167.661 10.1147 169.597 10.1147C171.533 10.1147 173.302 10.5644 174.906 11.464C176.529 12.3636 177.8 13.6151 178.719 15.2187C179.658 16.8222 180.127 18.6311 180.127 20.6453C180.127 22.6596 179.658 24.4782 178.719 26.1013C177.781 27.7049 176.509 28.9564 174.906 29.856C173.302 30.7556 171.533 31.2053 169.597 31.2053ZM169.597 26.6293C171.239 26.6293 172.549 26.0818 173.527 24.9867C174.525 23.8916 175.023 22.4444 175.023 20.6453C175.023 18.8267 174.525 17.3796 173.527 16.304C172.549 15.2089 171.239 14.6613 169.597 14.6613C167.934 14.6613 166.605 15.1991 165.607 16.2747C164.629 17.3502 164.141 18.8071 164.141 20.6453C164.141 22.464 164.629 23.9209 165.607 25.016C166.605 26.0916 167.934 26.6293 169.597 26.6293ZM181.801 20.6747C181.801 18.6409 182.241 16.832 183.121 15.248C184.001 13.6444 185.223 12.4027 186.787 11.5227C188.371 10.6231 190.161 10.1733 192.155 10.1733C194.6 10.1733 196.692 10.8187 198.433 12.1093C200.173 13.4 201.337 15.16 201.923 17.3893H196.409C195.998 16.5289 195.411 15.8738 194.649 15.424C193.905 14.9742 193.055 14.7493 192.097 14.7493C190.552 14.7493 189.3 15.2871 188.342 16.3627C187.384 17.4382 186.905 18.8756 186.905 20.6747C186.905 22.4738 187.384 23.9111 188.342 24.9867C189.3 26.0622 190.552 26.6 192.097 26.6C193.055 26.6 193.905 26.3751 194.649 25.9253C195.411 25.4756 195.998 24.8204 196.409 23.96H201.923C201.337 26.1893 200.173 27.9493 198.433 29.24C196.692 30.5111 194.6 31.1467 192.155 31.1467C190.161 31.1467 188.371 30.7067 186.787 29.8267C185.223 28.9271 184.001 27.6853 183.121 26.1013C182.241 24.5173 181.801 22.7084 181.801 20.6747ZM216.667 31L209.744 21.9067V31H204.728V10.408H209.744V19.4427L216.608 10.408H222.504L214.526 20.4987L222.798 31H216.667Z" fill="white"/>
<defs>
<clipPath id="clip0">
<rect width="21.9961" height="21.9961" fill="white" transform="translate(8.10449 9.43713)"/>
</clipPath>
</defs>
</svg>
