<svg width="55" height="55" viewBox="0 0 55 55" fill="none" xmlns="http://www.w3.org/2000/svg">
<path d="M27.5 6.875C16.109 6.875 6.875 16.109 6.875 27.5C6.875 38.891 16.109 48.125 27.5 48.125C38.891 48.125 48.125 38.891 48.125 27.5C48.125 16.109 38.891 6.875 27.5 6.875ZM22.4512 36.0486H18.2746V22.608H22.4512V36.0486ZM20.3371 20.958C19.018 20.958 18.165 20.0234 18.165 18.8676C18.165 17.6881 19.0437 16.7814 20.3908 16.7814C21.7379 16.7814 22.5629 17.6881 22.5887 18.8676C22.5887 20.0234 21.7379 20.958 20.3371 20.958ZM37.7051 36.0486H33.5285V28.6C33.5285 26.8662 32.9227 25.6889 31.4123 25.6889C30.2586 25.6889 29.5732 26.4859 29.2703 27.2529C29.1586 27.5258 29.1307 27.9125 29.1307 28.2971V36.0465H24.952V26.8941C24.952 25.2162 24.8982 23.8133 24.8424 22.6059H28.4711L28.6623 24.4729H28.7461C29.2961 23.5963 30.6432 22.3029 32.8969 22.3029C35.6447 22.3029 37.7051 24.1441 37.7051 28.1016V36.0486Z" fill="white"/>
</svg>
