<svg width="50" height="50" viewBox="0 0 50 50" fill="none" xmlns="http://www.w3.org/2000/svg">
<path d="M42.0002 14.2497C36.0002 4.99969 23.7502 2.2497 14.2502 7.99969C5.00018 13.7497 2.00018 26.2497 8.00018 35.4997L8.50018 36.2497L6.50018 43.7497L14.0002 41.7497L14.7502 42.2497C18.0002 43.9997 21.5002 44.9997 25.0002 44.9997C28.7502 44.9997 32.5002 43.9997 35.7502 41.9997C45.0002 35.9997 47.7502 23.7497 42.0002 14.2497ZM36.7502 33.4997C35.7502 34.9997 34.5002 35.9997 32.7502 36.2497C31.7502 36.2497 30.5002 36.7497 25.5002 34.7497C21.2502 32.7497 17.7502 29.4997 15.2502 25.7497C13.7502 23.9997 13.0002 21.7497 12.7502 19.4997C12.7502 17.4997 13.5002 15.7497 14.7502 14.4997C15.2502 13.9997 15.7502 13.7497 16.2502 13.7497H17.5002C18.0002 13.7497 18.5002 13.7497 18.7502 14.7497C19.2502 15.9997 20.5002 18.9997 20.5002 19.2497C20.7502 19.4997 20.7502 19.9997 20.5002 20.2497C20.7502 20.7497 20.5002 21.2497 20.2502 21.4997C20.0002 21.7497 19.7502 22.2497 19.5002 22.4997C19.0002 22.7497 18.7502 23.2497 19.0002 23.7497C20.0002 25.2497 21.2502 26.7497 22.5002 27.9997C24.0002 29.2497 25.5002 30.2497 27.2502 30.9997C27.7502 31.2497 28.2502 31.2497 28.5002 30.7497C28.7502 30.2497 30.0002 28.9997 30.5002 28.4997C31.0002 27.9997 31.2502 27.9997 31.7502 28.2497L35.7502 30.2497C36.2502 30.4997 36.7502 30.7497 37.0002 30.9997C37.2502 31.7497 37.2502 32.7497 36.7502 33.4997Z" fill="white"/>
</svg>
