<svg width="47" height="48" viewBox="0 0 47 48" fill="none" xmlns="http://www.w3.org/2000/svg">
<circle cx="23.199" cy="23.8184" r="23.199" fill="white"/>
<g clip-path="url(#clip0_301:169)">
<path d="M34.4136 17.3376C34.3817 16.6348 34.3817 15.964 34.3817 15.2931C34.3817 14.75 33.9664 14.3348 33.4233 14.3348C29.4302 14.3348 26.3954 13.1847 23.8718 10.725C23.4884 10.3736 22.9134 10.3736 22.5301 10.725C20.0064 13.1847 16.9716 14.3348 12.9785 14.3348C12.4354 14.3348 12.0202 14.75 12.0202 15.2931C12.0202 15.964 12.0202 16.6348 11.9882 17.3376C11.8604 24.0461 11.6688 33.2462 22.8815 37.1116L23.2009 37.1755L23.5204 37.1116C34.7011 33.2462 34.5414 24.078 34.4136 17.3376ZM22.4342 26.6336C22.2426 26.7933 22.019 26.8892 21.7634 26.8892H21.7315C21.4759 26.8892 21.2203 26.7614 21.0606 26.5697L18.0897 23.2794L19.5272 22.0016L21.8592 24.5891L27.0343 19.6696L28.3441 21.0752L22.4342 26.6336Z" fill="#79B44C"/>
</g>
<defs>
<clipPath id="clip0_301:169">
<rect width="26.7141" height="26.7141" fill="white" transform="translate(9.84375 10.4614)"/>
</clipPath>
</defs>
</svg>
