<svg width="29" height="29" viewBox="0 0 29 29" fill="none" xmlns="http://www.w3.org/2000/svg">
<circle cx="14.3264" cy="14.3264" r="14.3264" fill="white"/>
<g clip-path="url(#clip0)">
<path d="M21.2515 10.3242C21.2318 9.89021 21.2318 9.47594 21.2318 9.06166C21.2318 8.72629 20.9753 8.46984 20.6399 8.46984C18.174 8.46984 16.2999 7.75965 14.7414 6.24063C14.5047 6.02363 14.1496 6.02363 13.9129 6.24063C12.3544 7.75965 10.4803 8.46984 8.01437 8.46984C7.679 8.46984 7.42254 8.72629 7.42254 9.06166C7.42254 9.47594 7.42254 9.89021 7.40282 10.3242C7.32391 14.467 7.20554 20.1485 14.1299 22.5355L14.3272 22.575L14.5244 22.5355C21.429 20.1485 21.3304 14.4867 21.2515 10.3242ZM13.8537 16.0649C13.7353 16.1635 13.5972 16.2227 13.4394 16.2227H13.4197C13.2619 16.2227 13.1041 16.1438 13.0054 16.0255L11.1708 13.9935L12.0585 13.2044L13.4986 14.8024L16.6945 11.7643L17.5033 12.6323L13.8537 16.0649Z" fill="#79B44C"/>
</g>
<defs>
<clipPath id="clip0">
<rect width="16.4971" height="16.4971" fill="white" transform="translate(6.07812 6.07788)"/>
</clipPath>
</defs>
</svg>
