<svg width="28" height="27" viewBox="0 0 28 27" fill="none" xmlns="http://www.w3.org/2000/svg">
<path opacity="0.1" d="M14.0395 0.622955C6.77543 0.622955 0.886719 6.51167 0.886719 13.7758C0.886719 21.0399 6.77543 26.9286 14.0395 26.9286C21.3036 26.9286 27.1923 21.0399 27.1923 13.7758C27.1839 6.51517 21.3001 0.631411 14.0395 0.622955Z" fill="white"/>
<path d="M21.6309 9.61068L14.1283 19.7921C13.9494 20.0294 13.6826 20.185 13.3879 20.2237C13.0931 20.2625 12.7952 20.1812 12.561 19.9981L7.20338 15.7147C6.73061 15.3363 6.65405 14.6464 7.03239 14.1736C7.41073 13.7008 8.10069 13.6243 8.57346 14.0026L13.041 17.5769L19.8662 8.31404C20.0901 7.97819 20.4803 7.79251 20.8821 7.83071C21.2839 7.86891 21.6321 8.12482 21.7886 8.49683C21.9451 8.86884 21.8845 9.29675 21.6309 9.61068Z" fill="white"/>
</svg>
