<svg width="27" height="27" viewBox="0 0 27 27" fill="none" xmlns="http://www.w3.org/2000/svg">
<path opacity="0.08" d="M13.4731 0.234039C6.20902 0.234039 0.320313 6.12275 0.320312 13.3868C0.320312 20.6509 6.20902 26.5396 13.4731 26.5396C20.7372 26.5396 26.6259 20.6509 26.6259 13.3868C26.6175 6.12626 20.7337 0.242495 13.4731 0.234039Z" fill="#4511AD"/>
<path d="M21.0655 9.22177L13.5629 19.4031C13.384 19.6405 13.1172 19.7961 12.8224 19.8348C12.5277 19.8736 12.2297 19.7923 11.9955 19.6092L6.63795 15.3258C6.16518 14.9474 6.08862 14.2575 6.46696 13.7847C6.8453 13.3119 7.53526 13.2354 8.00803 13.6137L12.4756 17.188L19.3008 7.92512C19.5246 7.58927 19.9149 7.40359 20.3167 7.4418C20.7184 7.48 21.0667 7.73591 21.2232 8.10791C21.3797 8.47992 21.3191 8.90784 21.0655 9.22177Z" fill="#4511AD"/>
</svg>
