<svg width="28" height="29" viewBox="0 0 28 29" fill="none" xmlns="http://www.w3.org/2000/svg">
<circle cx="13.9194" cy="14.8914" r="13.9194" fill="#79B44C"/>
<g clip-path="url(#clip0_301:585)">
<path d="M20.6486 11.0024C20.6294 10.5807 20.6294 10.1782 20.6294 9.77573C20.6294 9.44989 20.3803 9.20072 20.0544 9.20072C17.6585 9.20072 15.8377 8.5107 14.3235 7.03484C14.0935 6.824 13.7485 6.824 13.5185 7.03484C12.0043 8.5107 10.1834 9.20072 7.7875 9.20072C7.46166 9.20072 7.21249 9.44989 7.21249 9.77573C7.21249 10.1782 7.21249 10.5807 7.19332 11.0024C7.11665 15.0275 7.00165 20.5476 13.7293 22.8668L13.921 22.9052L14.1126 22.8668C20.8211 20.5476 20.7253 15.0467 20.6486 11.0024ZM13.4609 16.58C13.3459 16.6759 13.2118 16.7334 13.0584 16.7334H13.0393C12.8859 16.7334 12.7326 16.6567 12.6368 16.5417L10.8542 14.5675L11.7167 13.8008L13.1159 15.3533L16.221 12.4016L17.0069 13.245L13.4609 16.58Z" fill="white"/>
</g>
<defs>
<clipPath id="clip0_301:585">
<rect width="16.0285" height="16.0285" fill="white" transform="translate(5.90625 6.87671)"/>
</clipPath>
</defs>
</svg>
